<svg width="21" height="22" viewBox="0 0 21 22" fill="none" xmlns="http://www.w3.org/2000/svg">
<path fill-rule="evenodd" clip-rule="evenodd" d="M10.75 0.25C6.46983 0.25 3.00004 3.71979 3.00004 8V8.7041C3.00004 9.40102 2.79375 10.0824 2.40717 10.6622L1.25856 12.3851C-0.0745319 14.3848 0.943176 17.1028 3.26177 17.7351C4.01738 17.9412 4.77937 18.1155 5.54578 18.2581L5.54768 18.2632C6.31667 20.3151 8.37198 21.75 10.75 21.75C13.128 21.75 15.1833 20.3151 15.9523 18.2632L15.9542 18.2581C16.7206 18.1155 17.4827 17.9412 18.2383 17.7351C20.5569 17.1028 21.5746 14.3848 20.2415 12.3851L19.0929 10.6622C18.7063 10.0824 18.5 9.40102 18.5 8.7041V8C18.5 3.71979 15.0302 0.25 10.75 0.25ZM14.1264 18.537C11.8835 18.805 9.61644 18.8049 7.37349 18.5369C8.08444 19.5585 9.32101 20.25 10.75 20.25C12.1789 20.25 13.4155 19.5585 14.1264 18.537ZM4.50004 8C4.50004 4.54822 7.29826 1.75 10.75 1.75C14.2018 1.75 17 4.54822 17 8V8.7041C17 9.69716 17.294 10.668 17.8448 11.4943L18.9934 13.2172C19.7586 14.3649 19.1745 15.925 17.8436 16.288C13.1994 17.5546 8.3007 17.5546 3.65644 16.288C2.32561 15.925 1.74147 14.3649 2.50664 13.2172L3.65524 11.4943C4.20609 10.668 4.50004 9.69716 4.50004 8.7041V8Z" fill="#ABB7C2"/>
</svg>
