<svg width="24" height="24" viewBox="0 0 24 24" fill="none" xmlns="http://www.w3.org/2000/svg">
<g filter="url(#filter0_i_1060_1003)">
<path d="M9.78743 2.49703C10.9364 1.20478 12.4979 1.41103 13.4969 2.49703L14.1059 3.20278C14.3174 3.43303 14.6227 3.55153 14.9332 3.52528L16.0162 3.20278C17.4929 2.88628 18.8347 3.98803 18.8347 5.69878V6.34378C18.8662 6.69553 19.1737 6.93403 19.4909 7.08928L20.4697 7.49803C21.8849 8.18953 22.2397 9.83053 21.2077 11.2068L20.9152 11.5938C20.6527 11.9485 20.7059 12.415 20.9677 12.7713L21.2602 13.1815C22.3267 14.494 21.7252 16.294 20.2192 16.924L19.3769 17.2758C19.0597 17.4085 18.9344 17.6358 18.8759 17.9748L18.8174 19.0758C18.6119 20.5878 17.2694 21.2703 16.1924 21.118L14.9092 20.7753C14.6009 20.7318 14.2177 20.8338 14.0122 21.1563L13.5494 21.7893C12.4012 23.0838 10.8509 22.8685 10.0694 22.1118L9.21518 21.0768C8.99168 20.8608 8.70968 20.6755 8.37218 20.803L7.08068 21.1555C6.01493 21.307 4.75868 20.488 4.55843 19.4298L4.40843 17.8983C4.37896 17.7411 4.31241 17.5933 4.21431 17.467C4.11622 17.3407 3.98942 17.2397 3.84443 17.1723L2.93843 16.861C1.57568 16.2265 1.11968 14.689 1.90193 13.4058L2.41193 12.6993C2.5126 12.5347 2.5638 12.3447 2.55941 12.1519C2.55502 11.9591 2.49523 11.7716 2.38718 11.6118L2.00693 11.0718C0.928434 9.53728 1.67393 7.82128 3.27143 7.30678L3.62393 7.19353C4.01243 7.06828 4.38893 6.74503 4.42043 6.33778L4.49993 5.34928C4.62743 3.74428 6.09143 2.82328 7.63193 3.29203L8.13068 3.44353C8.61068 3.63103 8.98718 3.47128 9.24968 3.18553L9.78743 2.49703Z" fill="url(#paint0_linear_1060_1003)"/>
<path d="M9.78743 2.49703C10.9364 1.20478 12.4979 1.41103 13.4969 2.49703L14.1059 3.20278C14.3174 3.43303 14.6227 3.55153 14.9332 3.52528L16.0162 3.20278C17.4929 2.88628 18.8347 3.98803 18.8347 5.69878V6.34378C18.8662 6.69553 19.1737 6.93403 19.4909 7.08928L20.4697 7.49803C21.8849 8.18953 22.2397 9.83053 21.2077 11.2068L20.9152 11.5938C20.6527 11.9485 20.7059 12.415 20.9677 12.7713L21.2602 13.1815C22.3267 14.494 21.7252 16.294 20.2192 16.924L19.3769 17.2758C19.0597 17.4085 18.9344 17.6358 18.8759 17.9748L18.8174 19.0758C18.6119 20.5878 17.2694 21.2703 16.1924 21.118L14.9092 20.7753C14.6009 20.7318 14.2177 20.8338 14.0122 21.1563L13.5494 21.7893C12.4012 23.0838 10.8509 22.8685 10.0694 22.1118L9.21518 21.0768C8.99168 20.8608 8.70968 20.6755 8.37218 20.803L7.08068 21.1555C6.01493 21.307 4.75868 20.488 4.55843 19.4298L4.40843 17.8983C4.37896 17.7411 4.31241 17.5933 4.21431 17.467C4.11622 17.3407 3.98942 17.2397 3.84443 17.1723L2.93843 16.861C1.57568 16.2265 1.11968 14.689 1.90193 13.4058L2.41193 12.6993C2.5126 12.5347 2.5638 12.3447 2.55941 12.1519C2.55502 11.9591 2.49523 11.7716 2.38718 11.6118L2.00693 11.0718C0.928434 9.53728 1.67393 7.82128 3.27143 7.30678L3.62393 7.19353C4.01243 7.06828 4.38893 6.74503 4.42043 6.33778L4.49993 5.34928C4.62743 3.74428 6.09143 2.82328 7.63193 3.29203L8.13068 3.44353C8.61068 3.63103 8.98718 3.47128 9.24968 3.18553L9.78743 2.49703Z" fill="url(#paint1_radial_1060_1003)"/>
<path d="M9.78743 2.49703C10.9364 1.20478 12.4979 1.41103 13.4969 2.49703L14.1059 3.20278C14.3174 3.43303 14.6227 3.55153 14.9332 3.52528L16.0162 3.20278C17.4929 2.88628 18.8347 3.98803 18.8347 5.69878V6.34378C18.8662 6.69553 19.1737 6.93403 19.4909 7.08928L20.4697 7.49803C21.8849 8.18953 22.2397 9.83053 21.2077 11.2068L20.9152 11.5938C20.6527 11.9485 20.7059 12.415 20.9677 12.7713L21.2602 13.1815C22.3267 14.494 21.7252 16.294 20.2192 16.924L19.3769 17.2758C19.0597 17.4085 18.9344 17.6358 18.8759 17.9748L18.8174 19.0758C18.6119 20.5878 17.2694 21.2703 16.1924 21.118L14.9092 20.7753C14.6009 20.7318 14.2177 20.8338 14.0122 21.1563L13.5494 21.7893C12.4012 23.0838 10.8509 22.8685 10.0694 22.1118L9.21518 21.0768C8.99168 20.8608 8.70968 20.6755 8.37218 20.803L7.08068 21.1555C6.01493 21.307 4.75868 20.488 4.55843 19.4298L4.40843 17.8983C4.37896 17.7411 4.31241 17.5933 4.21431 17.467C4.11622 17.3407 3.98942 17.2397 3.84443 17.1723L2.93843 16.861C1.57568 16.2265 1.11968 14.689 1.90193 13.4058L2.41193 12.6993C2.5126 12.5347 2.5638 12.3447 2.55941 12.1519C2.55502 11.9591 2.49523 11.7716 2.38718 11.6118L2.00693 11.0718C0.928434 9.53728 1.67393 7.82128 3.27143 7.30678L3.62393 7.19353C4.01243 7.06828 4.38893 6.74503 4.42043 6.33778L4.49993 5.34928C4.62743 3.74428 6.09143 2.82328 7.63193 3.29203L8.13068 3.44353C8.61068 3.63103 8.98718 3.47128 9.24968 3.18553L9.78743 2.49703Z" fill="url(#paint2_radial_1060_1003)"/>
<path d="M9.78743 2.49703C10.9364 1.20478 12.4979 1.41103 13.4969 2.49703L14.1059 3.20278C14.3174 3.43303 14.6227 3.55153 14.9332 3.52528L16.0162 3.20278C17.4929 2.88628 18.8347 3.98803 18.8347 5.69878V6.34378C18.8662 6.69553 19.1737 6.93403 19.4909 7.08928L20.4697 7.49803C21.8849 8.18953 22.2397 9.83053 21.2077 11.2068L20.9152 11.5938C20.6527 11.9485 20.7059 12.415 20.9677 12.7713L21.2602 13.1815C22.3267 14.494 21.7252 16.294 20.2192 16.924L19.3769 17.2758C19.0597 17.4085 18.9344 17.6358 18.8759 17.9748L18.8174 19.0758C18.6119 20.5878 17.2694 21.2703 16.1924 21.118L14.9092 20.7753C14.6009 20.7318 14.2177 20.8338 14.0122 21.1563L13.5494 21.7893C12.4012 23.0838 10.8509 22.8685 10.0694 22.1118L9.21518 21.0768C8.99168 20.8608 8.70968 20.6755 8.37218 20.803L7.08068 21.1555C6.01493 21.307 4.75868 20.488 4.55843 19.4298L4.40843 17.8983C4.37896 17.7411 4.31241 17.5933 4.21431 17.467C4.11622 17.3407 3.98942 17.2397 3.84443 17.1723L2.93843 16.861C1.57568 16.2265 1.11968 14.689 1.90193 13.4058L2.41193 12.6993C2.5126 12.5347 2.5638 12.3447 2.55941 12.1519C2.55502 11.9591 2.49523 11.7716 2.38718 11.6118L2.00693 11.0718C0.928434 9.53728 1.67393 7.82128 3.27143 7.30678L3.62393 7.19353C4.01243 7.06828 4.38893 6.74503 4.42043 6.33778L4.49993 5.34928C4.62743 3.74428 6.09143 2.82328 7.63193 3.29203L8.13068 3.44353C8.61068 3.63103 8.98718 3.47128 9.24968 3.18553L9.78743 2.49703Z" fill="url(#paint3_radial_1060_1003)"/>
<path d="M9.78743 2.49703C10.9364 1.20478 12.4979 1.41103 13.4969 2.49703L14.1059 3.20278C14.3174 3.43303 14.6227 3.55153 14.9332 3.52528L16.0162 3.20278C17.4929 2.88628 18.8347 3.98803 18.8347 5.69878V6.34378C18.8662 6.69553 19.1737 6.93403 19.4909 7.08928L20.4697 7.49803C21.8849 8.18953 22.2397 9.83053 21.2077 11.2068L20.9152 11.5938C20.6527 11.9485 20.7059 12.415 20.9677 12.7713L21.2602 13.1815C22.3267 14.494 21.7252 16.294 20.2192 16.924L19.3769 17.2758C19.0597 17.4085 18.9344 17.6358 18.8759 17.9748L18.8174 19.0758C18.6119 20.5878 17.2694 21.2703 16.1924 21.118L14.9092 20.7753C14.6009 20.7318 14.2177 20.8338 14.0122 21.1563L13.5494 21.7893C12.4012 23.0838 10.8509 22.8685 10.0694 22.1118L9.21518 21.0768C8.99168 20.8608 8.70968 20.6755 8.37218 20.803L7.08068 21.1555C6.01493 21.307 4.75868 20.488 4.55843 19.4298L4.40843 17.8983C4.37896 17.7411 4.31241 17.5933 4.21431 17.467C4.11622 17.3407 3.98942 17.2397 3.84443 17.1723L2.93843 16.861C1.57568 16.2265 1.11968 14.689 1.90193 13.4058L2.41193 12.6993C2.5126 12.5347 2.5638 12.3447 2.55941 12.1519C2.55502 11.9591 2.49523 11.7716 2.38718 11.6118L2.00693 11.0718C0.928434 9.53728 1.67393 7.82128 3.27143 7.30678L3.62393 7.19353C4.01243 7.06828 4.38893 6.74503 4.42043 6.33778L4.49993 5.34928C4.62743 3.74428 6.09143 2.82328 7.63193 3.29203L8.13068 3.44353C8.61068 3.63103 8.98718 3.47128 9.24968 3.18553L9.78743 2.49703Z" fill="url(#paint4_radial_1060_1003)"/>
<path d="M9.78743 2.49703C10.9364 1.20478 12.4979 1.41103 13.4969 2.49703L14.1059 3.20278C14.3174 3.43303 14.6227 3.55153 14.9332 3.52528L16.0162 3.20278C17.4929 2.88628 18.8347 3.98803 18.8347 5.69878V6.34378C18.8662 6.69553 19.1737 6.93403 19.4909 7.08928L20.4697 7.49803C21.8849 8.18953 22.2397 9.83053 21.2077 11.2068L20.9152 11.5938C20.6527 11.9485 20.7059 12.415 20.9677 12.7713L21.2602 13.1815C22.3267 14.494 21.7252 16.294 20.2192 16.924L19.3769 17.2758C19.0597 17.4085 18.9344 17.6358 18.8759 17.9748L18.8174 19.0758C18.6119 20.5878 17.2694 21.2703 16.1924 21.118L14.9092 20.7753C14.6009 20.7318 14.2177 20.8338 14.0122 21.1563L13.5494 21.7893C12.4012 23.0838 10.8509 22.8685 10.0694 22.1118L9.21518 21.0768C8.99168 20.8608 8.70968 20.6755 8.37218 20.803L7.08068 21.1555C6.01493 21.307 4.75868 20.488 4.55843 19.4298L4.40843 17.8983C4.37896 17.7411 4.31241 17.5933 4.21431 17.467C4.11622 17.3407 3.98942 17.2397 3.84443 17.1723L2.93843 16.861C1.57568 16.2265 1.11968 14.689 1.90193 13.4058L2.41193 12.6993C2.5126 12.5347 2.5638 12.3447 2.55941 12.1519C2.55502 11.9591 2.49523 11.7716 2.38718 11.6118L2.00693 11.0718C0.928434 9.53728 1.67393 7.82128 3.27143 7.30678L3.62393 7.19353C4.01243 7.06828 4.38893 6.74503 4.42043 6.33778L4.49993 5.34928C4.62743 3.74428 6.09143 2.82328 7.63193 3.29203L8.13068 3.44353C8.61068 3.63103 8.98718 3.47128 9.24968 3.18553L9.78743 2.49703Z" fill="url(#paint5_radial_1060_1003)"/>
<path d="M9.78743 2.49703C10.9364 1.20478 12.4979 1.41103 13.4969 2.49703L14.1059 3.20278C14.3174 3.43303 14.6227 3.55153 14.9332 3.52528L16.0162 3.20278C17.4929 2.88628 18.8347 3.98803 18.8347 5.69878V6.34378C18.8662 6.69553 19.1737 6.93403 19.4909 7.08928L20.4697 7.49803C21.8849 8.18953 22.2397 9.83053 21.2077 11.2068L20.9152 11.5938C20.6527 11.9485 20.7059 12.415 20.9677 12.7713L21.2602 13.1815C22.3267 14.494 21.7252 16.294 20.2192 16.924L19.3769 17.2758C19.0597 17.4085 18.9344 17.6358 18.8759 17.9748L18.8174 19.0758C18.6119 20.5878 17.2694 21.2703 16.1924 21.118L14.9092 20.7753C14.6009 20.7318 14.2177 20.8338 14.0122 21.1563L13.5494 21.7893C12.4012 23.0838 10.8509 22.8685 10.0694 22.1118L9.21518 21.0768C8.99168 20.8608 8.70968 20.6755 8.37218 20.803L7.08068 21.1555C6.01493 21.307 4.75868 20.488 4.55843 19.4298L4.40843 17.8983C4.37896 17.7411 4.31241 17.5933 4.21431 17.467C4.11622 17.3407 3.98942 17.2397 3.84443 17.1723L2.93843 16.861C1.57568 16.2265 1.11968 14.689 1.90193 13.4058L2.41193 12.6993C2.5126 12.5347 2.5638 12.3447 2.55941 12.1519C2.55502 11.9591 2.49523 11.7716 2.38718 11.6118L2.00693 11.0718C0.928434 9.53728 1.67393 7.82128 3.27143 7.30678L3.62393 7.19353C4.01243 7.06828 4.38893 6.74503 4.42043 6.33778L4.49993 5.34928C4.62743 3.74428 6.09143 2.82328 7.63193 3.29203L8.13068 3.44353C8.61068 3.63103 8.98718 3.47128 9.24968 3.18553L9.78743 2.49703Z" fill="url(#paint6_radial_1060_1003)"/>
<path d="M9.78743 2.49703C10.9364 1.20478 12.4979 1.41103 13.4969 2.49703L14.1059 3.20278C14.3174 3.43303 14.6227 3.55153 14.9332 3.52528L16.0162 3.20278C17.4929 2.88628 18.8347 3.98803 18.8347 5.69878V6.34378C18.8662 6.69553 19.1737 6.93403 19.4909 7.08928L20.4697 7.49803C21.8849 8.18953 22.2397 9.83053 21.2077 11.2068L20.9152 11.5938C20.6527 11.9485 20.7059 12.415 20.9677 12.7713L21.2602 13.1815C22.3267 14.494 21.7252 16.294 20.2192 16.924L19.3769 17.2758C19.0597 17.4085 18.9344 17.6358 18.8759 17.9748L18.8174 19.0758C18.6119 20.5878 17.2694 21.2703 16.1924 21.118L14.9092 20.7753C14.6009 20.7318 14.2177 20.8338 14.0122 21.1563L13.5494 21.7893C12.4012 23.0838 10.8509 22.8685 10.0694 22.1118L9.21518 21.0768C8.99168 20.8608 8.70968 20.6755 8.37218 20.803L7.08068 21.1555C6.01493 21.307 4.75868 20.488 4.55843 19.4298L4.40843 17.8983C4.37896 17.7411 4.31241 17.5933 4.21431 17.467C4.11622 17.3407 3.98942 17.2397 3.84443 17.1723L2.93843 16.861C1.57568 16.2265 1.11968 14.689 1.90193 13.4058L2.41193 12.6993C2.5126 12.5347 2.5638 12.3447 2.55941 12.1519C2.55502 11.9591 2.49523 11.7716 2.38718 11.6118L2.00693 11.0718C0.928434 9.53728 1.67393 7.82128 3.27143 7.30678L3.62393 7.19353C4.01243 7.06828 4.38893 6.74503 4.42043 6.33778L4.49993 5.34928C4.62743 3.74428 6.09143 2.82328 7.63193 3.29203L8.13068 3.44353C8.61068 3.63103 8.98718 3.47128 9.24968 3.18553L9.78743 2.49703Z" fill="url(#paint7_radial_1060_1003)"/>
<path d="M9.78743 2.49703C10.9364 1.20478 12.4979 1.41103 13.4969 2.49703L14.1059 3.20278C14.3174 3.43303 14.6227 3.55153 14.9332 3.52528L16.0162 3.20278C17.4929 2.88628 18.8347 3.98803 18.8347 5.69878V6.34378C18.8662 6.69553 19.1737 6.93403 19.4909 7.08928L20.4697 7.49803C21.8849 8.18953 22.2397 9.83053 21.2077 11.2068L20.9152 11.5938C20.6527 11.9485 20.7059 12.415 20.9677 12.7713L21.2602 13.1815C22.3267 14.494 21.7252 16.294 20.2192 16.924L19.3769 17.2758C19.0597 17.4085 18.9344 17.6358 18.8759 17.9748L18.8174 19.0758C18.6119 20.5878 17.2694 21.2703 16.1924 21.118L14.9092 20.7753C14.6009 20.7318 14.2177 20.8338 14.0122 21.1563L13.5494 21.7893C12.4012 23.0838 10.8509 22.8685 10.0694 22.1118L9.21518 21.0768C8.99168 20.8608 8.70968 20.6755 8.37218 20.803L7.08068 21.1555C6.01493 21.307 4.75868 20.488 4.55843 19.4298L4.40843 17.8983C4.37896 17.7411 4.31241 17.5933 4.21431 17.467C4.11622 17.3407 3.98942 17.2397 3.84443 17.1723L2.93843 16.861C1.57568 16.2265 1.11968 14.689 1.90193 13.4058L2.41193 12.6993C2.5126 12.5347 2.5638 12.3447 2.55941 12.1519C2.55502 11.9591 2.49523 11.7716 2.38718 11.6118L2.00693 11.0718C0.928434 9.53728 1.67393 7.82128 3.27143 7.30678L3.62393 7.19353C4.01243 7.06828 4.38893 6.74503 4.42043 6.33778L4.49993 5.34928C4.62743 3.74428 6.09143 2.82328 7.63193 3.29203L8.13068 3.44353C8.61068 3.63103 8.98718 3.47128 9.24968 3.18553L9.78743 2.49703Z" fill="url(#paint8_radial_1060_1003)"/>
<path d="M9.78743 2.49703C10.9364 1.20478 12.4979 1.41103 13.4969 2.49703L14.1059 3.20278C14.3174 3.43303 14.6227 3.55153 14.9332 3.52528L16.0162 3.20278C17.4929 2.88628 18.8347 3.98803 18.8347 5.69878V6.34378C18.8662 6.69553 19.1737 6.93403 19.4909 7.08928L20.4697 7.49803C21.8849 8.18953 22.2397 9.83053 21.2077 11.2068L20.9152 11.5938C20.6527 11.9485 20.7059 12.415 20.9677 12.7713L21.2602 13.1815C22.3267 14.494 21.7252 16.294 20.2192 16.924L19.3769 17.2758C19.0597 17.4085 18.9344 17.6358 18.8759 17.9748L18.8174 19.0758C18.6119 20.5878 17.2694 21.2703 16.1924 21.118L14.9092 20.7753C14.6009 20.7318 14.2177 20.8338 14.0122 21.1563L13.5494 21.7893C12.4012 23.0838 10.8509 22.8685 10.0694 22.1118L9.21518 21.0768C8.99168 20.8608 8.70968 20.6755 8.37218 20.803L7.08068 21.1555C6.01493 21.307 4.75868 20.488 4.55843 19.4298L4.40843 17.8983C4.37896 17.7411 4.31241 17.5933 4.21431 17.467C4.11622 17.3407 3.98942 17.2397 3.84443 17.1723L2.93843 16.861C1.57568 16.2265 1.11968 14.689 1.90193 13.4058L2.41193 12.6993C2.5126 12.5347 2.5638 12.3447 2.55941 12.1519C2.55502 11.9591 2.49523 11.7716 2.38718 11.6118L2.00693 11.0718C0.928434 9.53728 1.67393 7.82128 3.27143 7.30678L3.62393 7.19353C4.01243 7.06828 4.38893 6.74503 4.42043 6.33778L4.49993 5.34928C4.62743 3.74428 6.09143 2.82328 7.63193 3.29203L8.13068 3.44353C8.61068 3.63103 8.98718 3.47128 9.24968 3.18553L9.78743 2.49703Z" fill="url(#paint9_radial_1060_1003)"/>
</g>
<g filter="url(#filter1_d_1060_1003)">
<path d="M11.65 20.2004C16.1005 20.2004 19.7073 16.5929 19.7073 12.1432C19.7073 7.69344 16.0998 4.08594 11.65 4.08594C7.20027 4.08594 3.59277 7.69344 3.59277 12.1432C3.59277 16.5929 7.20027 20.2004 11.65 20.2004Z" fill="url(#paint10_radial_1060_1003)"/>
</g>
<defs>
<filter id="filter0_i_1060_1003" x="1.5" y="1.45352" width="20.4518" height="21.2672" filterUnits="userSpaceOnUse" color-interpolation-filters="sRGB">
<feFlood flood-opacity="0" result="BackgroundImageFix"/>
<feBlend mode="normal" in="SourceGraphic" in2="BackgroundImageFix" result="shape"/>
<feColorMatrix in="SourceAlpha" type="matrix" values="0 0 0 0 0 0 0 0 0 0 0 0 0 0 0 0 0 0 127 0" result="hardAlpha"/>
<feOffset dx="0.15" dy="-0.15"/>
<feGaussianBlur stdDeviation="0.28125"/>
<feComposite in2="hardAlpha" operator="arithmetic" k2="-1" k3="1"/>
<feColorMatrix type="matrix" values="0 0 0 0 0.839216 0 0 0 0 0.45098 0 0 0 0 0.211765 0 0 0 1 0"/>
<feBlend mode="normal" in2="shape" result="effect1_innerShadow_1060_1003"/>
</filter>
<filter id="filter1_d_1060_1003" x="3.14277" y="4.08594" width="16.5643" height="16.5643" filterUnits="userSpaceOnUse" color-interpolation-filters="sRGB">
<feFlood flood-opacity="0" result="BackgroundImageFix"/>
<feColorMatrix in="SourceAlpha" type="matrix" values="0 0 0 0 0 0 0 0 0 0 0 0 0 0 0 0 0 0 127 0" result="hardAlpha"/>
<feOffset dx="-0.225" dy="0.225"/>
<feGaussianBlur stdDeviation="0.1125"/>
<feComposite in2="hardAlpha" operator="out"/>
<feColorMatrix type="matrix" values="0 0 0 0 0.921569 0 0 0 0 0.47451 0 0 0 0 0.133333 0 0 0 1 0"/>
<feBlend mode="normal" in2="BackgroundImageFix" result="effect1_dropShadow_1060_1003"/>
<feBlend mode="normal" in="SourceGraphic" in2="effect1_dropShadow_1060_1003" result="shape"/>
</filter>
<linearGradient id="paint0_linear_1060_1003" x1="17.9084" y1="5.14978" x2="6.39593" y2="19.8378" gradientUnits="userSpaceOnUse">
<stop stop-color="#FC8B23"/>
<stop offset="1" stop-color="#E67639"/>
</linearGradient>
<radialGradient id="paint1_radial_1060_1003" cx="0" cy="0" r="1" gradientUnits="userSpaceOnUse" gradientTransform="translate(13.5885 2.57744) rotate(138.155) scale(2.83398 2.50045)">
<stop offset="0.3" stop-color="#FFA13A"/>
<stop offset="1" stop-color="#FFA13A" stop-opacity="0"/>
</radialGradient>
<radialGradient id="paint2_radial_1060_1003" cx="0" cy="0" r="1" gradientUnits="userSpaceOnUse" gradientTransform="translate(6.21593 1.68253) rotate(67.8105) scale(4.50536 3.97513)">
<stop offset="0.3" stop-color="#FF942A"/>
<stop offset="1" stop-color="#FF942A" stop-opacity="0"/>
</radialGradient>
<radialGradient id="paint3_radial_1060_1003" cx="0" cy="0" r="1" gradientUnits="userSpaceOnUse" gradientTransform="translate(18.3155 5.88729) rotate(-164.745) scale(1.79635 2.48728)">
<stop offset="0.3" stop-color="#FFA13D"/>
<stop offset="1" stop-color="#FFA13D" stop-opacity="0"/>
</radialGradient>
<radialGradient id="paint4_radial_1060_1003" cx="0" cy="0" r="1" gradientUnits="userSpaceOnUse" gradientTransform="translate(21.9389 8.50153) rotate(154.195) scale(3.18501 2.35236)">
<stop offset="0.3" stop-color="#FFA13D"/>
<stop offset="1" stop-color="#FFA13D" stop-opacity="0"/>
</radialGradient>
<radialGradient id="paint5_radial_1060_1003" cx="0" cy="0" r="1" gradientUnits="userSpaceOnUse" gradientTransform="translate(22.6327 13.8895) rotate(-173.379) scale(3.55282 2.00214)">
<stop offset="0.3" stop-color="#FFA13D"/>
<stop offset="1" stop-color="#FFA13D" stop-opacity="0"/>
</radialGradient>
<radialGradient id="paint6_radial_1060_1003" cx="0" cy="0" r="1" gradientUnits="userSpaceOnUse" gradientTransform="translate(19.4495 18.0175) rotate(-43.964) scale(3.2227 3.10469)">
<stop stop-color="#E0762A"/>
<stop offset="1" stop-color="#E0762A" stop-opacity="0"/>
</radialGradient>
<radialGradient id="paint7_radial_1060_1003" cx="0" cy="0" r="1" gradientUnits="userSpaceOnUse" gradientTransform="translate(4.51418 17.2608) rotate(-127.747) scale(2.47068 2.3802)">
<stop stop-color="#E0762A"/>
<stop offset="1" stop-color="#E0762A" stop-opacity="0"/>
</radialGradient>
<radialGradient id="paint8_radial_1060_1003" cx="0" cy="0" r="1" gradientUnits="userSpaceOnUse" gradientTransform="translate(1.14218 8.91103) rotate(25.2776) scale(2.50896 3.03244)">
<stop stop-color="#F0851D"/>
<stop offset="1" stop-color="#F0851D" stop-opacity="0"/>
</radialGradient>
<radialGradient id="paint9_radial_1060_1003" cx="0" cy="0" r="1" gradientUnits="userSpaceOnUse" gradientTransform="translate(16.1189 21.5952) rotate(-142.487) scale(2.92519 2.75965)">
<stop offset="0.337" stop-color="#E3745B"/>
<stop offset="1" stop-color="#E3745B" stop-opacity="0"/>
</radialGradient>
<radialGradient id="paint10_radial_1060_1003" cx="0" cy="0" r="1" gradientUnits="userSpaceOnUse" gradientTransform="translate(16.2234 7.4753) rotate(117.739) scale(14.3774 17.7548)">
<stop offset="0.172" stop-color="#FFD13D"/>
<stop offset="1" stop-color="#D89A29"/>
</radialGradient>
</defs>
</svg>
