<svg width="24" height="24" viewBox="0 0 24 24" fill="none" xmlns="http://www.w3.org/2000/svg">
<path d="M6.07516 1.99338C6.70816 1.28013 7.57066 1.39338 8.12191 1.99338L8.45791 2.38338C8.57416 2.50938 8.7429 2.57538 8.91465 2.56038L9.5124 2.38263C10.3277 2.20788 11.0679 2.81613 11.0679 3.76038V4.11588C11.0852 4.31088 11.2554 4.44213 11.4302 4.52763L11.9702 4.75263C12.7517 5.13513 12.9467 6.04038 12.3774 6.80013L12.2162 7.01388C12.0707 7.20963 12.1007 7.46688 12.2447 7.66413L12.4067 7.88988C12.9954 8.61438 12.6632 9.60813 11.8322 9.95538L11.3672 10.1504C11.1917 10.2231 11.1234 10.3484 11.0904 10.5359L11.0582 11.1434C11.0384 11.3131 10.985 11.4772 10.9011 11.626C10.8173 11.7749 10.7047 11.9056 10.5698 12.0105C10.4349 12.1155 10.2805 12.1925 10.1156 12.2371C9.95069 12.2818 9.77853 12.2932 9.60916 12.2706L8.90116 12.0816C8.73091 12.0576 8.51941 12.1139 8.40616 12.2916L8.15116 12.6411C7.51666 13.3559 6.66166 13.2366 6.22966 12.8189L5.75866 12.2481C5.63491 12.1281 5.47966 12.0261 5.29366 12.0966L4.58116 12.2916C3.99166 12.3749 3.29866 11.9226 3.18841 11.3391L3.10591 10.4939C3.08962 10.407 3.05281 10.3252 2.99854 10.2554C2.94427 10.1856 2.87411 10.1298 2.79391 10.0926L2.29366 9.92088C1.54216 9.57063 1.29016 8.72238 1.72216 8.01363L2.00416 7.62363C2.05955 7.53278 2.08765 7.42792 2.08513 7.32154C2.0826 7.21516 2.04955 7.11175 1.98991 7.02363L1.77991 6.72588C1.18441 5.87838 1.59616 4.93188 2.47741 4.64763L2.67241 4.58463C2.88691 4.51563 3.09466 4.33713 3.11191 4.11213L3.15541 3.56688C3.22591 2.68188 4.03441 2.17338 4.88416 2.43138L5.15941 2.51538C5.42491 2.61888 5.63191 2.53038 5.77741 2.37288L6.07516 1.99338Z" fill="url(#paint0_linear_1060_1068)"/>
<path d="M6.07516 1.99338C6.70816 1.28013 7.57066 1.39338 8.12191 1.99338L8.45791 2.38338C8.57416 2.50938 8.7429 2.57538 8.91465 2.56038L9.5124 2.38263C10.3277 2.20788 11.0679 2.81613 11.0679 3.76038V4.11588C11.0852 4.31088 11.2554 4.44213 11.4302 4.52763L11.9702 4.75263C12.7517 5.13513 12.9467 6.04038 12.3774 6.80013L12.2162 7.01388C12.0707 7.20963 12.1007 7.46688 12.2447 7.66413L12.4067 7.88988C12.9954 8.61438 12.6632 9.60813 11.8322 9.95538L11.3672 10.1504C11.1917 10.2231 11.1234 10.3484 11.0904 10.5359L11.0582 11.1434C11.0384 11.3131 10.985 11.4772 10.9011 11.626C10.8173 11.7749 10.7047 11.9056 10.5698 12.0105C10.4349 12.1155 10.2805 12.1925 10.1156 12.2371C9.95069 12.2818 9.77853 12.2932 9.60916 12.2706L8.90116 12.0816C8.73091 12.0576 8.51941 12.1139 8.40616 12.2916L8.15116 12.6411C7.51666 13.3559 6.66166 13.2366 6.22966 12.8189L5.75866 12.2481C5.63491 12.1281 5.47966 12.0261 5.29366 12.0966L4.58116 12.2916C3.99166 12.3749 3.29866 11.9226 3.18841 11.3391L3.10591 10.4939C3.08962 10.407 3.05281 10.3252 2.99854 10.2554C2.94427 10.1856 2.87411 10.1298 2.79391 10.0926L2.29366 9.92088C1.54216 9.57063 1.29016 8.72238 1.72216 8.01363L2.00416 7.62363C2.05955 7.53278 2.08765 7.42792 2.08513 7.32154C2.0826 7.21516 2.04955 7.11175 1.98991 7.02363L1.77991 6.72588C1.18441 5.87838 1.59616 4.93188 2.47741 4.64763L2.67241 4.58463C2.88691 4.51563 3.09466 4.33713 3.11191 4.11213L3.15541 3.56688C3.22591 2.68188 4.03441 2.17338 4.88416 2.43138L5.15941 2.51538C5.42491 2.61888 5.63191 2.53038 5.77741 2.37288L6.07516 1.99338Z" fill="url(#paint1_radial_1060_1068)"/>
<path d="M6.07516 1.99338C6.70816 1.28013 7.57066 1.39338 8.12191 1.99338L8.45791 2.38338C8.57416 2.50938 8.7429 2.57538 8.91465 2.56038L9.5124 2.38263C10.3277 2.20788 11.0679 2.81613 11.0679 3.76038V4.11588C11.0852 4.31088 11.2554 4.44213 11.4302 4.52763L11.9702 4.75263C12.7517 5.13513 12.9467 6.04038 12.3774 6.80013L12.2162 7.01388C12.0707 7.20963 12.1007 7.46688 12.2447 7.66413L12.4067 7.88988C12.9954 8.61438 12.6632 9.60813 11.8322 9.95538L11.3672 10.1504C11.1917 10.2231 11.1234 10.3484 11.0904 10.5359L11.0582 11.1434C11.0384 11.3131 10.985 11.4772 10.9011 11.626C10.8173 11.7749 10.7047 11.9056 10.5698 12.0105C10.4349 12.1155 10.2805 12.1925 10.1156 12.2371C9.95069 12.2818 9.77853 12.2932 9.60916 12.2706L8.90116 12.0816C8.73091 12.0576 8.51941 12.1139 8.40616 12.2916L8.15116 12.6411C7.51666 13.3559 6.66166 13.2366 6.22966 12.8189L5.75866 12.2481C5.63491 12.1281 5.47966 12.0261 5.29366 12.0966L4.58116 12.2916C3.99166 12.3749 3.29866 11.9226 3.18841 11.3391L3.10591 10.4939C3.08962 10.407 3.05281 10.3252 2.99854 10.2554C2.94427 10.1856 2.87411 10.1298 2.79391 10.0926L2.29366 9.92088C1.54216 9.57063 1.29016 8.72238 1.72216 8.01363L2.00416 7.62363C2.05955 7.53278 2.08765 7.42792 2.08513 7.32154C2.0826 7.21516 2.04955 7.11175 1.98991 7.02363L1.77991 6.72588C1.18441 5.87838 1.59616 4.93188 2.47741 4.64763L2.67241 4.58463C2.88691 4.51563 3.09466 4.33713 3.11191 4.11213L3.15541 3.56688C3.22591 2.68188 4.03441 2.17338 4.88416 2.43138L5.15941 2.51538C5.42491 2.61888 5.63191 2.53038 5.77741 2.37288L6.07516 1.99338Z" fill="url(#paint2_radial_1060_1068)"/>
<path d="M6.07516 1.99338C6.70816 1.28013 7.57066 1.39338 8.12191 1.99338L8.45791 2.38338C8.57416 2.50938 8.7429 2.57538 8.91465 2.56038L9.5124 2.38263C10.3277 2.20788 11.0679 2.81613 11.0679 3.76038V4.11588C11.0852 4.31088 11.2554 4.44213 11.4302 4.52763L11.9702 4.75263C12.7517 5.13513 12.9467 6.04038 12.3774 6.80013L12.2162 7.01388C12.0707 7.20963 12.1007 7.46688 12.2447 7.66413L12.4067 7.88988C12.9954 8.61438 12.6632 9.60813 11.8322 9.95538L11.3672 10.1504C11.1917 10.2231 11.1234 10.3484 11.0904 10.5359L11.0582 11.1434C11.0384 11.3131 10.985 11.4772 10.9011 11.626C10.8173 11.7749 10.7047 11.9056 10.5698 12.0105C10.4349 12.1155 10.2805 12.1925 10.1156 12.2371C9.95069 12.2818 9.77853 12.2932 9.60916 12.2706L8.90116 12.0816C8.73091 12.0576 8.51941 12.1139 8.40616 12.2916L8.15116 12.6411C7.51666 13.3559 6.66166 13.2366 6.22966 12.8189L5.75866 12.2481C5.63491 12.1281 5.47966 12.0261 5.29366 12.0966L4.58116 12.2916C3.99166 12.3749 3.29866 11.9226 3.18841 11.3391L3.10591 10.4939C3.08962 10.407 3.05281 10.3252 2.99854 10.2554C2.94427 10.1856 2.87411 10.1298 2.79391 10.0926L2.29366 9.92088C1.54216 9.57063 1.29016 8.72238 1.72216 8.01363L2.00416 7.62363C2.05955 7.53278 2.08765 7.42792 2.08513 7.32154C2.0826 7.21516 2.04955 7.11175 1.98991 7.02363L1.77991 6.72588C1.18441 5.87838 1.59616 4.93188 2.47741 4.64763L2.67241 4.58463C2.88691 4.51563 3.09466 4.33713 3.11191 4.11213L3.15541 3.56688C3.22591 2.68188 4.03441 2.17338 4.88416 2.43138L5.15941 2.51538C5.42491 2.61888 5.63191 2.53038 5.77741 2.37288L6.07516 1.99338Z" fill="url(#paint3_radial_1060_1068)"/>
<path d="M6.07516 1.99338C6.70816 1.28013 7.57066 1.39338 8.12191 1.99338L8.45791 2.38338C8.57416 2.50938 8.7429 2.57538 8.91465 2.56038L9.5124 2.38263C10.3277 2.20788 11.0679 2.81613 11.0679 3.76038V4.11588C11.0852 4.31088 11.2554 4.44213 11.4302 4.52763L11.9702 4.75263C12.7517 5.13513 12.9467 6.04038 12.3774 6.80013L12.2162 7.01388C12.0707 7.20963 12.1007 7.46688 12.2447 7.66413L12.4067 7.88988C12.9954 8.61438 12.6632 9.60813 11.8322 9.95538L11.3672 10.1504C11.1917 10.2231 11.1234 10.3484 11.0904 10.5359L11.0582 11.1434C11.0384 11.3131 10.985 11.4772 10.9011 11.626C10.8173 11.7749 10.7047 11.9056 10.5698 12.0105C10.4349 12.1155 10.2805 12.1925 10.1156 12.2371C9.95069 12.2818 9.77853 12.2932 9.60916 12.2706L8.90116 12.0816C8.73091 12.0576 8.51941 12.1139 8.40616 12.2916L8.15116 12.6411C7.51666 13.3559 6.66166 13.2366 6.22966 12.8189L5.75866 12.2481C5.63491 12.1281 5.47966 12.0261 5.29366 12.0966L4.58116 12.2916C3.99166 12.3749 3.29866 11.9226 3.18841 11.3391L3.10591 10.4939C3.08962 10.407 3.05281 10.3252 2.99854 10.2554C2.94427 10.1856 2.87411 10.1298 2.79391 10.0926L2.29366 9.92088C1.54216 9.57063 1.29016 8.72238 1.72216 8.01363L2.00416 7.62363C2.05955 7.53278 2.08765 7.42792 2.08513 7.32154C2.0826 7.21516 2.04955 7.11175 1.98991 7.02363L1.77991 6.72588C1.18441 5.87838 1.59616 4.93188 2.47741 4.64763L2.67241 4.58463C2.88691 4.51563 3.09466 4.33713 3.11191 4.11213L3.15541 3.56688C3.22591 2.68188 4.03441 2.17338 4.88416 2.43138L5.15941 2.51538C5.42491 2.61888 5.63191 2.53038 5.77741 2.37288L6.07516 1.99338Z" fill="url(#paint4_radial_1060_1068)"/>
<path d="M6.07516 1.99338C6.70816 1.28013 7.57066 1.39338 8.12191 1.99338L8.45791 2.38338C8.57416 2.50938 8.7429 2.57538 8.91465 2.56038L9.5124 2.38263C10.3277 2.20788 11.0679 2.81613 11.0679 3.76038V4.11588C11.0852 4.31088 11.2554 4.44213 11.4302 4.52763L11.9702 4.75263C12.7517 5.13513 12.9467 6.04038 12.3774 6.80013L12.2162 7.01388C12.0707 7.20963 12.1007 7.46688 12.2447 7.66413L12.4067 7.88988C12.9954 8.61438 12.6632 9.60813 11.8322 9.95538L11.3672 10.1504C11.1917 10.2231 11.1234 10.3484 11.0904 10.5359L11.0582 11.1434C11.0384 11.3131 10.985 11.4772 10.9011 11.626C10.8173 11.7749 10.7047 11.9056 10.5698 12.0105C10.4349 12.1155 10.2805 12.1925 10.1156 12.2371C9.95069 12.2818 9.77853 12.2932 9.60916 12.2706L8.90116 12.0816C8.73091 12.0576 8.51941 12.1139 8.40616 12.2916L8.15116 12.6411C7.51666 13.3559 6.66166 13.2366 6.22966 12.8189L5.75866 12.2481C5.63491 12.1281 5.47966 12.0261 5.29366 12.0966L4.58116 12.2916C3.99166 12.3749 3.29866 11.9226 3.18841 11.3391L3.10591 10.4939C3.08962 10.407 3.05281 10.3252 2.99854 10.2554C2.94427 10.1856 2.87411 10.1298 2.79391 10.0926L2.29366 9.92088C1.54216 9.57063 1.29016 8.72238 1.72216 8.01363L2.00416 7.62363C2.05955 7.53278 2.08765 7.42792 2.08513 7.32154C2.0826 7.21516 2.04955 7.11175 1.98991 7.02363L1.77991 6.72588C1.18441 5.87838 1.59616 4.93188 2.47741 4.64763L2.67241 4.58463C2.88691 4.51563 3.09466 4.33713 3.11191 4.11213L3.15541 3.56688C3.22591 2.68188 4.03441 2.17338 4.88416 2.43138L5.15941 2.51538C5.42491 2.61888 5.63191 2.53038 5.77741 2.37288L6.07516 1.99338Z" fill="url(#paint5_radial_1060_1068)"/>
<path d="M6.07516 1.99338C6.70816 1.28013 7.57066 1.39338 8.12191 1.99338L8.45791 2.38338C8.57416 2.50938 8.7429 2.57538 8.91465 2.56038L9.5124 2.38263C10.3277 2.20788 11.0679 2.81613 11.0679 3.76038V4.11588C11.0852 4.31088 11.2554 4.44213 11.4302 4.52763L11.9702 4.75263C12.7517 5.13513 12.9467 6.04038 12.3774 6.80013L12.2162 7.01388C12.0707 7.20963 12.1007 7.46688 12.2447 7.66413L12.4067 7.88988C12.9954 8.61438 12.6632 9.60813 11.8322 9.95538L11.3672 10.1504C11.1917 10.2231 11.1234 10.3484 11.0904 10.5359L11.0582 11.1434C11.0384 11.3131 10.985 11.4772 10.9011 11.626C10.8173 11.7749 10.7047 11.9056 10.5698 12.0105C10.4349 12.1155 10.2805 12.1925 10.1156 12.2371C9.95069 12.2818 9.77853 12.2932 9.60916 12.2706L8.90116 12.0816C8.73091 12.0576 8.51941 12.1139 8.40616 12.2916L8.15116 12.6411C7.51666 13.3559 6.66166 13.2366 6.22966 12.8189L5.75866 12.2481C5.63491 12.1281 5.47966 12.0261 5.29366 12.0966L4.58116 12.2916C3.99166 12.3749 3.29866 11.9226 3.18841 11.3391L3.10591 10.4939C3.08962 10.407 3.05281 10.3252 2.99854 10.2554C2.94427 10.1856 2.87411 10.1298 2.79391 10.0926L2.29366 9.92088C1.54216 9.57063 1.29016 8.72238 1.72216 8.01363L2.00416 7.62363C2.05955 7.53278 2.08765 7.42792 2.08513 7.32154C2.0826 7.21516 2.04955 7.11175 1.98991 7.02363L1.77991 6.72588C1.18441 5.87838 1.59616 4.93188 2.47741 4.64763L2.67241 4.58463C2.88691 4.51563 3.09466 4.33713 3.11191 4.11213L3.15541 3.56688C3.22591 2.68188 4.03441 2.17338 4.88416 2.43138L5.15941 2.51538C5.42491 2.61888 5.63191 2.53038 5.77741 2.37288L6.07516 1.99338Z" fill="url(#paint6_radial_1060_1068)"/>
<path d="M6.07516 1.99338C6.70816 1.28013 7.57066 1.39338 8.12191 1.99338L8.45791 2.38338C8.57416 2.50938 8.7429 2.57538 8.91465 2.56038L9.5124 2.38263C10.3277 2.20788 11.0679 2.81613 11.0679 3.76038V4.11588C11.0852 4.31088 11.2554 4.44213 11.4302 4.52763L11.9702 4.75263C12.7517 5.13513 12.9467 6.04038 12.3774 6.80013L12.2162 7.01388C12.0707 7.20963 12.1007 7.46688 12.2447 7.66413L12.4067 7.88988C12.9954 8.61438 12.6632 9.60813 11.8322 9.95538L11.3672 10.1504C11.1917 10.2231 11.1234 10.3484 11.0904 10.5359L11.0582 11.1434C11.0384 11.3131 10.985 11.4772 10.9011 11.626C10.8173 11.7749 10.7047 11.9056 10.5698 12.0105C10.4349 12.1155 10.2805 12.1925 10.1156 12.2371C9.95069 12.2818 9.77853 12.2932 9.60916 12.2706L8.90116 12.0816C8.73091 12.0576 8.51941 12.1139 8.40616 12.2916L8.15116 12.6411C7.51666 13.3559 6.66166 13.2366 6.22966 12.8189L5.75866 12.2481C5.63491 12.1281 5.47966 12.0261 5.29366 12.0966L4.58116 12.2916C3.99166 12.3749 3.29866 11.9226 3.18841 11.3391L3.10591 10.4939C3.08962 10.407 3.05281 10.3252 2.99854 10.2554C2.94427 10.1856 2.87411 10.1298 2.79391 10.0926L2.29366 9.92088C1.54216 9.57063 1.29016 8.72238 1.72216 8.01363L2.00416 7.62363C2.05955 7.53278 2.08765 7.42792 2.08513 7.32154C2.0826 7.21516 2.04955 7.11175 1.98991 7.02363L1.77991 6.72588C1.18441 5.87838 1.59616 4.93188 2.47741 4.64763L2.67241 4.58463C2.88691 4.51563 3.09466 4.33713 3.11191 4.11213L3.15541 3.56688C3.22591 2.68188 4.03441 2.17338 4.88416 2.43138L5.15941 2.51538C5.42491 2.61888 5.63191 2.53038 5.77741 2.37288L6.07516 1.99338Z" fill="url(#paint7_radial_1060_1068)"/>
<path d="M6.07516 1.99338C6.70816 1.28013 7.57066 1.39338 8.12191 1.99338L8.45791 2.38338C8.57416 2.50938 8.7429 2.57538 8.91465 2.56038L9.5124 2.38263C10.3277 2.20788 11.0679 2.81613 11.0679 3.76038V4.11588C11.0852 4.31088 11.2554 4.44213 11.4302 4.52763L11.9702 4.75263C12.7517 5.13513 12.9467 6.04038 12.3774 6.80013L12.2162 7.01388C12.0707 7.20963 12.1007 7.46688 12.2447 7.66413L12.4067 7.88988C12.9954 8.61438 12.6632 9.60813 11.8322 9.95538L11.3672 10.1504C11.1917 10.2231 11.1234 10.3484 11.0904 10.5359L11.0582 11.1434C11.0384 11.3131 10.985 11.4772 10.9011 11.626C10.8173 11.7749 10.7047 11.9056 10.5698 12.0105C10.4349 12.1155 10.2805 12.1925 10.1156 12.2371C9.95069 12.2818 9.77853 12.2932 9.60916 12.2706L8.90116 12.0816C8.73091 12.0576 8.51941 12.1139 8.40616 12.2916L8.15116 12.6411C7.51666 13.3559 6.66166 13.2366 6.22966 12.8189L5.75866 12.2481C5.63491 12.1281 5.47966 12.0261 5.29366 12.0966L4.58116 12.2916C3.99166 12.3749 3.29866 11.9226 3.18841 11.3391L3.10591 10.4939C3.08962 10.407 3.05281 10.3252 2.99854 10.2554C2.94427 10.1856 2.87411 10.1298 2.79391 10.0926L2.29366 9.92088C1.54216 9.57063 1.29016 8.72238 1.72216 8.01363L2.00416 7.62363C2.05955 7.53278 2.08765 7.42792 2.08513 7.32154C2.0826 7.21516 2.04955 7.11175 1.98991 7.02363L1.77991 6.72588C1.18441 5.87838 1.59616 4.93188 2.47741 4.64763L2.67241 4.58463C2.88691 4.51563 3.09466 4.33713 3.11191 4.11213L3.15541 3.56688C3.22591 2.68188 4.03441 2.17338 4.88416 2.43138L5.15941 2.51538C5.42491 2.61888 5.63191 2.53038 5.77741 2.37288L6.07516 1.99338Z" fill="url(#paint8_radial_1060_1068)"/>
<path d="M6.07516 1.99338C6.70816 1.28013 7.57066 1.39338 8.12191 1.99338L8.45791 2.38338C8.57416 2.50938 8.7429 2.57538 8.91465 2.56038L9.5124 2.38263C10.3277 2.20788 11.0679 2.81613 11.0679 3.76038V4.11588C11.0852 4.31088 11.2554 4.44213 11.4302 4.52763L11.9702 4.75263C12.7517 5.13513 12.9467 6.04038 12.3774 6.80013L12.2162 7.01388C12.0707 7.20963 12.1007 7.46688 12.2447 7.66413L12.4067 7.88988C12.9954 8.61438 12.6632 9.60813 11.8322 9.95538L11.3672 10.1504C11.1917 10.2231 11.1234 10.3484 11.0904 10.5359L11.0582 11.1434C11.0384 11.3131 10.985 11.4772 10.9011 11.626C10.8173 11.7749 10.7047 11.9056 10.5698 12.0105C10.4349 12.1155 10.2805 12.1925 10.1156 12.2371C9.95069 12.2818 9.77853 12.2932 9.60916 12.2706L8.90116 12.0816C8.73091 12.0576 8.51941 12.1139 8.40616 12.2916L8.15116 12.6411C7.51666 13.3559 6.66166 13.2366 6.22966 12.8189L5.75866 12.2481C5.63491 12.1281 5.47966 12.0261 5.29366 12.0966L4.58116 12.2916C3.99166 12.3749 3.29866 11.9226 3.18841 11.3391L3.10591 10.4939C3.08962 10.407 3.05281 10.3252 2.99854 10.2554C2.94427 10.1856 2.87411 10.1298 2.79391 10.0926L2.29366 9.92088C1.54216 9.57063 1.29016 8.72238 1.72216 8.01363L2.00416 7.62363C2.05955 7.53278 2.08765 7.42792 2.08513 7.32154C2.0826 7.21516 2.04955 7.11175 1.98991 7.02363L1.77991 6.72588C1.18441 5.87838 1.59616 4.93188 2.47741 4.64763L2.67241 4.58463C2.88691 4.51563 3.09466 4.33713 3.11191 4.11213L3.15541 3.56688C3.22591 2.68188 4.03441 2.17338 4.88416 2.43138L5.15941 2.51538C5.42491 2.61888 5.63191 2.53038 5.77741 2.37288L6.07516 1.99338Z" fill="url(#paint9_radial_1060_1068)"/>
<g filter="url(#filter0_d_1060_1068)">
<path d="M7.10313 11.7634C7.69396 11.7742 8.28102 11.6672 8.83003 11.4486C9.37904 11.23 9.87898 10.9042 10.3007 10.4902C10.7223 10.0762 11.0573 9.58237 11.2859 9.03747C11.5145 8.49257 11.6323 7.90757 11.6323 7.31664C11.6323 6.72571 11.5145 6.14071 11.2859 5.59581C11.0573 5.05091 10.7223 4.55703 10.3007 4.14304C9.87898 3.72904 9.37904 3.40323 8.83003 3.18463C8.28102 2.96604 7.69396 2.85904 7.10313 2.86989C5.93792 2.89129 4.82767 3.3692 4.0112 4.20079C3.19474 5.03239 2.7373 6.15124 2.7373 7.31664C2.7373 8.48205 3.19474 9.60089 4.0112 10.4325C4.82767 11.2641 5.93792 11.742 7.10313 11.7634Z" fill="url(#paint10_radial_1060_1068)"/>
<path d="M7.10313 11.7634C7.69396 11.7742 8.28102 11.6672 8.83003 11.4486C9.37904 11.23 9.87898 10.9042 10.3007 10.4902C10.7223 10.0762 11.0573 9.58237 11.2859 9.03747C11.5145 8.49257 11.6323 7.90757 11.6323 7.31664C11.6323 6.72571 11.5145 6.14071 11.2859 5.59581C11.0573 5.05091 10.7223 4.55703 10.3007 4.14304C9.87898 3.72904 9.37904 3.40323 8.83003 3.18463C8.28102 2.96604 7.69396 2.85904 7.10313 2.86989C5.93792 2.89129 4.82767 3.3692 4.0112 4.20079C3.19474 5.03239 2.7373 6.15124 2.7373 7.31664C2.7373 8.48205 3.19474 9.60089 4.0112 10.4325C4.82767 11.2641 5.93792 11.742 7.10313 11.7634Z" fill="url(#paint11_radial_1060_1068)"/>
</g>
<path d="M9.20532 10.8632C9.60939 10.8722 10.0112 10.8003 10.3871 10.6519C10.7631 10.5035 11.1056 10.2815 11.3945 9.99886C11.6835 9.71626 11.9131 9.37878 12.0698 9.00624C12.2265 8.6337 12.3073 8.2336 12.3073 7.82942C12.3073 7.42525 12.2265 7.02515 12.0698 6.6526C11.9131 6.28006 11.6835 5.94259 11.3945 5.65999C11.1056 5.37739 10.7631 5.15536 10.3871 5.00694C10.0112 4.85851 9.60939 4.78669 9.20532 4.79567C8.4124 4.8133 7.65789 5.14067 7.10335 5.70769C6.5488 6.27471 6.23828 7.03631 6.23828 7.82942C6.23828 8.62254 6.5488 9.38413 7.10335 9.95115C7.65789 10.5182 8.4124 10.8455 9.20532 10.8632Z" fill="url(#paint12_radial_1060_1068)"/>
<path d="M9.20532 10.8632C9.60939 10.8722 10.0112 10.8003 10.3871 10.6519C10.7631 10.5035 11.1056 10.2815 11.3945 9.99886C11.6835 9.71626 11.9131 9.37878 12.0698 9.00624C12.2265 8.6337 12.3073 8.2336 12.3073 7.82942C12.3073 7.42525 12.2265 7.02515 12.0698 6.6526C11.9131 6.28006 11.6835 5.94259 11.3945 5.65999C11.1056 5.37739 10.7631 5.15536 10.3871 5.00694C10.0112 4.85851 9.60939 4.78669 9.20532 4.79567C8.4124 4.8133 7.65789 5.14067 7.10335 5.70769C6.5488 6.27471 6.23828 7.03631 6.23828 7.82942C6.23828 8.62254 6.5488 9.38413 7.10335 9.95115C7.65789 10.5182 8.4124 10.8455 9.20532 10.8632Z" fill="url(#paint13_radial_1060_1068)"/>
<g filter="url(#filter1_i_1060_1068)">
<path d="M6.53491 18.7918L4.80241 21.1618C4.37491 21.7468 3.55741 21.8743 2.97241 21.4468C2.38741 21.0193 2.25991 20.2018 2.68741 19.6168L4.41991 17.2468C4.84741 16.6618 5.66491 16.5343 6.24991 16.9618C6.83491 17.3818 6.96241 18.2068 6.53491 18.7918Z" fill="#535DFF"/>
<path d="M6.53491 18.7918L4.80241 21.1618C4.37491 21.7468 3.55741 21.8743 2.97241 21.4468C2.38741 21.0193 2.25991 20.2018 2.68741 19.6168L4.41991 17.2468C4.84741 16.6618 5.66491 16.5343 6.24991 16.9618C6.83491 17.3818 6.96241 18.2068 6.53491 18.7918Z" fill="url(#paint14_radial_1060_1068)"/>
</g>
<g filter="url(#filter2_i_1060_1068)">
<path d="M11.4597 18.7918L9.72722 21.1618C9.29972 21.7468 8.48222 21.8743 7.89722 21.4468C7.31222 21.0193 7.18472 20.2018 7.61222 19.6168L9.34472 17.2468C9.77222 16.6618 10.5897 16.5343 11.1747 16.9618C11.7597 17.3818 11.8872 18.2068 11.4597 18.7918Z" fill="#535DFF"/>
<path d="M11.4597 18.7918L9.72722 21.1618C9.29972 21.7468 8.48222 21.8743 7.89722 21.4468C7.31222 21.0193 7.18472 20.2018 7.61222 19.6168L9.34472 17.2468C9.77222 16.6618 10.5897 16.5343 11.1747 16.9618C11.7597 17.3818 11.8872 18.2068 11.4597 18.7918Z" fill="url(#paint15_radial_1060_1068)"/>
</g>
<g filter="url(#filter3_i_1060_1068)">
<path d="M16.3855 18.7918L14.653 21.1618C14.2255 21.7468 13.408 21.8743 12.823 21.4468C12.238 21.0193 12.1105 20.2018 12.538 19.6168L14.2705 17.2468C14.698 16.6618 15.5155 16.5343 16.1005 16.9618C16.6855 17.3818 16.813 18.2068 16.3855 18.7918Z" fill="#535DFF"/>
<path d="M16.3855 18.7918L14.653 21.1618C14.2255 21.7468 13.408 21.8743 12.823 21.4468C12.238 21.0193 12.1105 20.2018 12.538 19.6168L14.2705 17.2468C14.698 16.6618 15.5155 16.5343 16.1005 16.9618C16.6855 17.3818 16.813 18.2068 16.3855 18.7918Z" fill="url(#paint16_radial_1060_1068)"/>
</g>
<g filter="url(#filter4_i_1060_1068)">
<path d="M20.4938 4.79262C17.8223 2.18862 13.548 2.23362 10.944 4.90512C10.2726 5.59134 9.75539 6.41287 9.42675 7.31487C9.41611 7.34316 9.39923 7.36869 9.37736 7.38955C9.3555 7.41042 9.3292 7.42608 9.30045 7.43538C9.27169 7.44467 9.2412 7.44737 9.21126 7.44325C9.18132 7.43914 9.15269 7.42833 9.1275 7.41162C8.89306 7.25542 8.64447 7.12159 8.385 7.01187C7.64457 6.6725 6.83072 6.52465 6.01824 6.58193C5.20576 6.63921 4.4207 6.89976 3.73521 7.33966C3.04971 7.77955 2.48577 8.38468 2.0952 9.09943C1.70463 9.81418 1.49996 10.6156 1.5 11.4301C1.5 12.5739 1.899 13.6276 2.56125 14.4624C3.01677 15.0622 3.6051 15.5484 4.28007 15.8827C4.95503 16.217 5.69828 16.3903 6.4515 16.3891H16.0005C17.0065 16.39 17.998 16.15 18.8922 15.6891C19.7864 15.2282 20.5573 14.5599 21.1403 13.7401C23.1878 11.0611 22.9695 7.20837 20.493 4.79262" fill="#D5D4DA"/>
<path d="M20.4938 4.79262C17.8223 2.18862 13.548 2.23362 10.944 4.90512C10.2726 5.59134 9.75539 6.41287 9.42675 7.31487C9.41611 7.34316 9.39923 7.36869 9.37736 7.38955C9.3555 7.41042 9.3292 7.42608 9.30045 7.43538C9.27169 7.44467 9.2412 7.44737 9.21126 7.44325C9.18132 7.43914 9.15269 7.42833 9.1275 7.41162C8.89306 7.25542 8.64447 7.12159 8.385 7.01187C7.64457 6.6725 6.83072 6.52465 6.01824 6.58193C5.20576 6.63921 4.4207 6.89976 3.73521 7.33966C3.04971 7.77955 2.48577 8.38468 2.0952 9.09943C1.70463 9.81418 1.49996 10.6156 1.5 11.4301C1.5 12.5739 1.899 13.6276 2.56125 14.4624C3.01677 15.0622 3.6051 15.5484 4.28007 15.8827C4.95503 16.217 5.69828 16.3903 6.4515 16.3891H16.0005C17.0065 16.39 17.998 16.15 18.8922 15.6891C19.7864 15.2282 20.5573 14.5599 21.1403 13.7401C23.1878 11.0611 22.9695 7.20837 20.493 4.79262" fill="url(#paint17_linear_1060_1068)"/>
</g>
<path d="M20.4938 4.79262C17.8223 2.18862 13.548 2.23362 10.944 4.90512C10.2726 5.59134 9.75539 6.41287 9.42675 7.31487C9.41611 7.34316 9.39923 7.36869 9.37736 7.38955C9.3555 7.41042 9.3292 7.42608 9.30045 7.43538C9.27169 7.44467 9.2412 7.44737 9.21126 7.44325C9.18132 7.43914 9.15269 7.42833 9.1275 7.41162C8.89306 7.25542 8.64447 7.12159 8.385 7.01187C7.64457 6.6725 6.83072 6.52465 6.01824 6.58193C5.20576 6.63921 4.4207 6.89976 3.73521 7.33966C3.04971 7.77955 2.48577 8.38468 2.0952 9.09943C1.70463 9.81418 1.49996 10.6156 1.5 11.4301C1.5 12.5739 1.899 13.6276 2.56125 14.4624C3.01677 15.0622 3.6051 15.5484 4.28007 15.8827C4.95503 16.217 5.69828 16.3903 6.4515 16.3891H16.0005C17.0065 16.39 17.998 16.15 18.8922 15.6891C19.7864 15.2282 20.5573 14.5599 21.1403 13.7401C23.1878 11.0611 22.9695 7.20837 20.493 4.79262" fill="url(#paint18_radial_1060_1068)"/>
<path d="M20.4938 4.79262C17.8223 2.18862 13.548 2.23362 10.944 4.90512C10.2726 5.59134 9.75539 6.41287 9.42675 7.31487C9.41611 7.34316 9.39923 7.36869 9.37736 7.38955C9.3555 7.41042 9.3292 7.42608 9.30045 7.43538C9.27169 7.44467 9.2412 7.44737 9.21126 7.44325C9.18132 7.43914 9.15269 7.42833 9.1275 7.41162C8.89306 7.25542 8.64447 7.12159 8.385 7.01187C7.64457 6.6725 6.83072 6.52465 6.01824 6.58193C5.20576 6.63921 4.4207 6.89976 3.73521 7.33966C3.04971 7.77955 2.48577 8.38468 2.0952 9.09943C1.70463 9.81418 1.49996 10.6156 1.5 11.4301C1.5 12.5739 1.899 13.6276 2.56125 14.4624C3.01677 15.0622 3.6051 15.5484 4.28007 15.8827C4.95503 16.217 5.69828 16.3903 6.4515 16.3891H16.0005C17.0065 16.39 17.998 16.15 18.8922 15.6891C19.7864 15.2282 20.5573 14.5599 21.1403 13.7401C23.1878 11.0611 22.9695 7.20837 20.493 4.79262" fill="url(#paint19_radial_1060_1068)"/>
<path d="M20.4938 4.79262C17.8223 2.18862 13.548 2.23362 10.944 4.90512C10.2726 5.59134 9.75539 6.41287 9.42675 7.31487C9.41611 7.34316 9.39923 7.36869 9.37736 7.38955C9.3555 7.41042 9.3292 7.42608 9.30045 7.43538C9.27169 7.44467 9.2412 7.44737 9.21126 7.44325C9.18132 7.43914 9.15269 7.42833 9.1275 7.41162C8.89306 7.25542 8.64447 7.12159 8.385 7.01187C7.64457 6.6725 6.83072 6.52465 6.01824 6.58193C5.20576 6.63921 4.4207 6.89976 3.73521 7.33966C3.04971 7.77955 2.48577 8.38468 2.0952 9.09943C1.70463 9.81418 1.49996 10.6156 1.5 11.4301C1.5 12.5739 1.899 13.6276 2.56125 14.4624C3.01677 15.0622 3.6051 15.5484 4.28007 15.8827C4.95503 16.217 5.69828 16.3903 6.4515 16.3891H16.0005C17.0065 16.39 17.998 16.15 18.8922 15.6891C19.7864 15.2282 20.5573 14.5599 21.1403 13.7401C23.1878 11.0611 22.9695 7.20837 20.493 4.79262" fill="url(#paint20_radial_1060_1068)"/>
<path d="M20.4938 4.79262C17.8223 2.18862 13.548 2.23362 10.944 4.90512C10.2726 5.59134 9.75539 6.41287 9.42675 7.31487C9.41611 7.34316 9.39923 7.36869 9.37736 7.38955C9.3555 7.41042 9.3292 7.42608 9.30045 7.43538C9.27169 7.44467 9.2412 7.44737 9.21126 7.44325C9.18132 7.43914 9.15269 7.42833 9.1275 7.41162C8.89306 7.25542 8.64447 7.12159 8.385 7.01187C7.64457 6.6725 6.83072 6.52465 6.01824 6.58193C5.20576 6.63921 4.4207 6.89976 3.73521 7.33966C3.04971 7.77955 2.48577 8.38468 2.0952 9.09943C1.70463 9.81418 1.49996 10.6156 1.5 11.4301C1.5 12.5739 1.899 13.6276 2.56125 14.4624C3.01677 15.0622 3.6051 15.5484 4.28007 15.8827C4.95503 16.217 5.69828 16.3903 6.4515 16.3891H16.0005C17.0065 16.39 17.998 16.15 18.8922 15.6891C19.7864 15.2282 20.5573 14.5599 21.1403 13.7401C23.1878 11.0611 22.9695 7.20837 20.493 4.79262" fill="url(#paint21_radial_1060_1068)"/>
<path d="M20.4938 4.79262C17.8223 2.18862 13.548 2.23362 10.944 4.90512C10.2726 5.59134 9.75539 6.41287 9.42675 7.31487C9.41611 7.34316 9.39923 7.36869 9.37736 7.38955C9.3555 7.41042 9.3292 7.42608 9.30045 7.43538C9.27169 7.44467 9.2412 7.44737 9.21126 7.44325C9.18132 7.43914 9.15269 7.42833 9.1275 7.41162C8.89306 7.25542 8.64447 7.12159 8.385 7.01187C7.64457 6.6725 6.83072 6.52465 6.01824 6.58193C5.20576 6.63921 4.4207 6.89976 3.73521 7.33966C3.04971 7.77955 2.48577 8.38468 2.0952 9.09943C1.70463 9.81418 1.49996 10.6156 1.5 11.4301C1.5 12.5739 1.899 13.6276 2.56125 14.4624C3.01677 15.0622 3.6051 15.5484 4.28007 15.8827C4.95503 16.217 5.69828 16.3903 6.4515 16.3891H16.0005C17.0065 16.39 17.998 16.15 18.8922 15.6891C19.7864 15.2282 20.5573 14.5599 21.1403 13.7401C23.1878 11.0611 22.9695 7.20837 20.493 4.79262" fill="url(#paint22_linear_1060_1068)"/>
<g filter="url(#filter5_f_1060_1068)">
<path d="M11.5393 13.292C11.0689 14.0047 10.4925 14.6415 9.83008 15.1805H13.2703C12.6043 14.7852 11.8386 13.757 11.5386 13.292" fill="#EAE0FF"/>
</g>
<defs>
<filter id="filter0_d_1060_1068" x="2.2873" y="2.86914" width="9.34453" height="9.34453" filterUnits="userSpaceOnUse" color-interpolation-filters="sRGB">
<feFlood flood-opacity="0" result="BackgroundImageFix"/>
<feColorMatrix in="SourceAlpha" type="matrix" values="0 0 0 0 0 0 0 0 0 0 0 0 0 0 0 0 0 0 127 0" result="hardAlpha"/>
<feOffset dx="-0.225" dy="0.225"/>
<feGaussianBlur stdDeviation="0.1125"/>
<feComposite in2="hardAlpha" operator="out"/>
<feColorMatrix type="matrix" values="0 0 0 0 0.921569 0 0 0 0 0.47451 0 0 0 0 0.133333 0 0 0 1 0"/>
<feBlend mode="normal" in2="BackgroundImageFix" result="effect1_dropShadow_1060_1068"/>
<feBlend mode="normal" in="SourceGraphic" in2="effect1_dropShadow_1060_1068" result="shape"/>
</filter>
<filter id="filter1_i_1060_1068" x="2.43457" y="16.634" width="4.80352" height="5.06523" filterUnits="userSpaceOnUse" color-interpolation-filters="sRGB">
<feFlood flood-opacity="0" result="BackgroundImageFix"/>
<feBlend mode="normal" in="SourceGraphic" in2="BackgroundImageFix" result="shape"/>
<feColorMatrix in="SourceAlpha" type="matrix" values="0 0 0 0 0 0 0 0 0 0 0 0 0 0 0 0 0 0 127 0" result="hardAlpha"/>
<feOffset dx="0.45" dy="-0.075"/>
<feGaussianBlur stdDeviation="0.5625"/>
<feComposite in2="hardAlpha" operator="arithmetic" k2="-1" k3="1"/>
<feColorMatrix type="matrix" values="0 0 0 0 0.256493 0 0 0 0 0.282719 0 0 0 0 0.741667 0 0 0 1 0"/>
<feBlend mode="normal" in2="shape" result="effect1_innerShadow_1060_1068"/>
</filter>
<filter id="filter2_i_1060_1068" x="7.35938" y="16.634" width="4.80352" height="5.06523" filterUnits="userSpaceOnUse" color-interpolation-filters="sRGB">
<feFlood flood-opacity="0" result="BackgroundImageFix"/>
<feBlend mode="normal" in="SourceGraphic" in2="BackgroundImageFix" result="shape"/>
<feColorMatrix in="SourceAlpha" type="matrix" values="0 0 0 0 0 0 0 0 0 0 0 0 0 0 0 0 0 0 127 0" result="hardAlpha"/>
<feOffset dx="0.45" dy="-0.075"/>
<feGaussianBlur stdDeviation="0.5625"/>
<feComposite in2="hardAlpha" operator="arithmetic" k2="-1" k3="1"/>
<feColorMatrix type="matrix" values="0 0 0 0 0.256493 0 0 0 0 0.282719 0 0 0 0 0.741667 0 0 0 1 0"/>
<feBlend mode="normal" in2="shape" result="effect1_innerShadow_1060_1068"/>
</filter>
<filter id="filter3_i_1060_1068" x="12.2852" y="16.634" width="4.80352" height="5.06523" filterUnits="userSpaceOnUse" color-interpolation-filters="sRGB">
<feFlood flood-opacity="0" result="BackgroundImageFix"/>
<feBlend mode="normal" in="SourceGraphic" in2="BackgroundImageFix" result="shape"/>
<feColorMatrix in="SourceAlpha" type="matrix" values="0 0 0 0 0 0 0 0 0 0 0 0 0 0 0 0 0 0 127 0" result="hardAlpha"/>
<feOffset dx="0.45" dy="-0.075"/>
<feGaussianBlur stdDeviation="0.5625"/>
<feComposite in2="hardAlpha" operator="arithmetic" k2="-1" k3="1"/>
<feColorMatrix type="matrix" values="0 0 0 0 0.256493 0 0 0 0 0.282719 0 0 0 0 0.741667 0 0 0 1 0"/>
<feBlend mode="normal" in2="shape" result="effect1_innerShadow_1060_1068"/>
</filter>
<filter id="filter4_i_1060_1068" x="1.5" y="2.12012" width="21.0283" height="14.2686" filterUnits="userSpaceOnUse" color-interpolation-filters="sRGB">
<feFlood flood-opacity="0" result="BackgroundImageFix"/>
<feBlend mode="normal" in="SourceGraphic" in2="BackgroundImageFix" result="shape"/>
<feColorMatrix in="SourceAlpha" type="matrix" values="0 0 0 0 0 0 0 0 0 0 0 0 0 0 0 0 0 0 127 0" result="hardAlpha"/>
<feOffset dy="-0.75"/>
<feGaussianBlur stdDeviation="0.75"/>
<feComposite in2="hardAlpha" operator="arithmetic" k2="-1" k3="1"/>
<feColorMatrix type="matrix" values="0 0 0 0 0.815686 0 0 0 0 0.784314 0 0 0 0 0.956863 0 0 0 1 0"/>
<feBlend mode="normal" in2="shape" result="effect1_innerShadow_1060_1068"/>
</filter>
<filter id="filter5_f_1060_1068" x="8.70508" y="12.167" width="5.69043" height="4.13867" filterUnits="userSpaceOnUse" color-interpolation-filters="sRGB">
<feFlood flood-opacity="0" result="BackgroundImageFix"/>
<feBlend mode="normal" in="SourceGraphic" in2="BackgroundImageFix" result="shape"/>
<feGaussianBlur stdDeviation="0.5625" result="effect1_foregroundBlur_1060_1068"/>
</filter>
<linearGradient id="paint0_linear_1060_1068" x1="10.5564" y1="3.45738" x2="4.20241" y2="11.5641" gradientUnits="userSpaceOnUse">
<stop stop-color="#FC8B23"/>
<stop offset="1" stop-color="#E67639"/>
</linearGradient>
<radialGradient id="paint1_radial_1060_1068" cx="0" cy="0" r="1" gradientUnits="userSpaceOnUse" gradientTransform="translate(8.17291 2.03763) rotate(138.155) scale(1.56418 1.38009)">
<stop offset="0.3" stop-color="#FFA13A"/>
<stop offset="1" stop-color="#FFA13A" stop-opacity="0"/>
</radialGradient>
<radialGradient id="paint2_radial_1060_1068" cx="0" cy="0" r="1" gradientUnits="userSpaceOnUse" gradientTransform="translate(4.10316 1.54373) rotate(67.811) scale(2.48668 2.19402)">
<stop offset="0.3" stop-color="#FF942A"/>
<stop offset="1" stop-color="#FF942A" stop-opacity="0"/>
</radialGradient>
<radialGradient id="paint3_radial_1060_1068" cx="0" cy="0" r="1" gradientUnits="userSpaceOnUse" gradientTransform="translate(10.7814 3.86313) rotate(-164.745) scale(0.99147 1.37282)">
<stop offset="0.3" stop-color="#FFA13D"/>
<stop offset="1" stop-color="#FFA13D" stop-opacity="0"/>
</radialGradient>
<radialGradient id="paint4_radial_1060_1068" cx="0" cy="0" r="1" gradientUnits="userSpaceOnUse" gradientTransform="translate(12.7809 5.30711) rotate(154.195) scale(1.75793 1.29835)">
<stop offset="0.3" stop-color="#FFA13D"/>
<stop offset="1" stop-color="#FFA13D" stop-opacity="0"/>
</radialGradient>
<radialGradient id="paint5_radial_1060_1068" cx="0" cy="0" r="1" gradientUnits="userSpaceOnUse" gradientTransform="translate(13.1637 8.2808) rotate(-173.379) scale(1.96094 1.10506)">
<stop offset="0.3" stop-color="#FFA13D"/>
<stop offset="1" stop-color="#FFA13D" stop-opacity="0"/>
</radialGradient>
<radialGradient id="paint6_radial_1060_1068" cx="0" cy="0" r="1" gradientUnits="userSpaceOnUse" gradientTransform="translate(11.4077 10.5599) rotate(-43.9639) scale(1.77873 1.71359)">
<stop stop-color="#E0762A"/>
<stop offset="1" stop-color="#E0762A" stop-opacity="0"/>
</radialGradient>
<radialGradient id="paint7_radial_1060_1068" cx="0" cy="0" r="1" gradientUnits="userSpaceOnUse" gradientTransform="translate(3.16366 10.1421) rotate(-127.747) scale(1.36366 1.31373)">
<stop stop-color="#E0762A"/>
<stop offset="1" stop-color="#E0762A" stop-opacity="0"/>
</radialGradient>
<radialGradient id="paint8_radial_1060_1068" cx="0" cy="0" r="1" gradientUnits="userSpaceOnUse" gradientTransform="translate(1.30291 5.53338) rotate(25.2777) scale(1.3848 1.67372)">
<stop stop-color="#F0851D"/>
<stop offset="1" stop-color="#F0851D" stop-opacity="0"/>
</radialGradient>
<radialGradient id="paint9_radial_1060_1068" cx="0" cy="0" r="1" gradientUnits="userSpaceOnUse" gradientTransform="translate(9.56866 12.5339) rotate(-142.487) scale(1.61452 1.52316)">
<stop offset="0.337" stop-color="#E3745B"/>
<stop offset="1" stop-color="#E3745B" stop-opacity="0"/>
</radialGradient>
<radialGradient id="paint10_radial_1060_1068" cx="0" cy="0" r="1" gradientUnits="userSpaceOnUse" gradientTransform="translate(9.62688 4.73964) rotate(117.739) scale(7.93545 9.7995)">
<stop offset="0.172" stop-color="#FFD13D"/>
<stop offset="1" stop-color="#D89A29"/>
</radialGradient>
<radialGradient id="paint11_radial_1060_1068" cx="0" cy="0" r="1" gradientUnits="userSpaceOnUse" gradientTransform="translate(10.7361 6.55712) rotate(168.299) scale(9.4704 7.99575)">
<stop offset="0.62" stop-color="#DCA225" stop-opacity="0"/>
<stop offset="1" stop-color="#DCA225"/>
</radialGradient>
<radialGradient id="paint12_radial_1060_1068" cx="0" cy="0" r="1" gradientUnits="userSpaceOnUse" gradientTransform="translate(10.2983 6.70326) rotate(-172.463) scale(4.16399)">
<stop offset="0.309" stop-color="#E8E8E9"/>
<stop offset="1" stop-color="#D2D2D2"/>
</radialGradient>
<radialGradient id="paint13_radial_1060_1068" cx="0" cy="0" r="1" gradientUnits="userSpaceOnUse" gradientTransform="translate(9.52956 7.57245) rotate(-141.242) scale(2.26049 2.07113)">
<stop stop-color="#CDCDCE"/>
<stop offset="1" stop-color="#CDCDCE" stop-opacity="0"/>
</radialGradient>
<radialGradient id="paint14_radial_1060_1068" cx="0" cy="0" r="1" gradientUnits="userSpaceOnUse" gradientTransform="translate(6.78791 17.4078) rotate(149.241) scale(1.69939 1.4741)">
<stop stop-color="#6779FF"/>
<stop offset="1" stop-color="#6779FF" stop-opacity="0"/>
</radialGradient>
<radialGradient id="paint15_radial_1060_1068" cx="0" cy="0" r="1" gradientUnits="userSpaceOnUse" gradientTransform="translate(11.712 17.4077) rotate(149.241) scale(1.69939 1.4741)">
<stop stop-color="#6779FF"/>
<stop offset="1" stop-color="#6779FF" stop-opacity="0"/>
</radialGradient>
<radialGradient id="paint16_radial_1060_1068" cx="0" cy="0" r="1" gradientUnits="userSpaceOnUse" gradientTransform="translate(16.6384 17.4073) rotate(149.241) scale(1.69939 1.4741)">
<stop stop-color="#6779FF"/>
<stop offset="1" stop-color="#6779FF" stop-opacity="0"/>
</radialGradient>
<linearGradient id="paint17_linear_1060_1068" x1="14.1623" y1="15.6616" x2="14.1623" y2="10.0194" gradientUnits="userSpaceOnUse">
<stop stop-color="#DED7FA"/>
<stop offset="1" stop-color="#DED7FA" stop-opacity="0"/>
</linearGradient>
<radialGradient id="paint18_radial_1060_1068" cx="0" cy="0" r="1" gradientUnits="userSpaceOnUse" gradientTransform="translate(19.8045 7.41462) rotate(136.5) scale(8.3769 8.9859)">
<stop offset="0.179" stop-color="#FCFBFE"/>
<stop offset="1" stop-color="#FCFBFE" stop-opacity="0"/>
</radialGradient>
<radialGradient id="paint19_radial_1060_1068" cx="0" cy="0" r="1" gradientUnits="userSpaceOnUse" gradientTransform="translate(6.50036 10.6268) rotate(144.444) scale(5.13917 5.38507)">
<stop stop-color="#FCFBFE"/>
<stop offset="1" stop-color="#FCFBFE" stop-opacity="0"/>
</radialGradient>
<radialGradient id="paint20_radial_1060_1068" cx="0" cy="0" r="1" gradientUnits="userSpaceOnUse" gradientTransform="translate(18.9338 9.22812) rotate(166.654) scale(17.9175 14.1106)">
<stop offset="0.815" stop-color="#CECCD7" stop-opacity="0"/>
<stop offset="1" stop-color="#CECCD7"/>
</radialGradient>
<radialGradient id="paint21_radial_1060_1068" cx="0" cy="0" r="1" gradientUnits="userSpaceOnUse" gradientTransform="translate(4.2375 17.1526) rotate(-50.572) scale(6.37975 8.80425)">
<stop stop-color="#D0C9EE"/>
<stop offset="1" stop-color="#D0C9EE" stop-opacity="0"/>
</radialGradient>
<linearGradient id="paint22_linear_1060_1068" x1="17.0685" y1="17.7924" x2="17.1218" y2="13.0816" gradientUnits="userSpaceOnUse">
<stop stop-color="#CFC6FF"/>
<stop offset="1" stop-color="#CFC6FF" stop-opacity="0"/>
</linearGradient>
</defs>
</svg>
