<svg width="16" height="20" viewBox="0 0 16 20" fill="none" xmlns="http://www.w3.org/2000/svg">
<path d="M1.6 0C0.716 0 0 0.688462 0 1.53846V18.4615C0 19.3115 0.716 20 1.6 20H14.4C15.284 20 16 19.3115 16 18.4615V5.76923C16 5.56538 15.916 5.36998 15.7656 5.22536L10.5656 0.225361C10.4152 0.0807452 10.212 0 10 0H1.6ZM9.6 1.46484L14.4766 6.15385H10.4C9.9584 6.15385 9.6 5.80923 9.6 5.38462V1.46484ZM4 6.15385C4.884 6.15385 5.6 6.84231 5.6 7.69231C5.6 8.54231 4.884 9.23077 4 9.23077C3.116 9.23077 2.4 8.54231 2.4 7.69231C2.4 6.84231 3.116 6.15385 4 6.15385ZM5.6 12.3092C6.0954 12.3092 6.59075 12.4911 6.96875 12.8546L8 13.8462L8.0125 13.8341L8.94844 14.7356C9.28604 15.0602 9.83115 15.0572 10.1687 14.7326C10.5064 14.408 10.5064 13.8801 10.1687 13.5547L9.25625 12.6773C10.0138 12.1402 11.0829 12.1951 11.7688 12.8546L13.6 14.6154V16.9231H2.4V14.6154L4.23125 12.8546C4.60925 12.4911 5.1046 12.3092 5.6 12.3092Z" fill="black"/>
</svg>
