<svg width="60" height="60" viewBox="0 0 60 60" fill="none" xmlns="http://www.w3.org/2000/svg">
<rect x="0.5" y="0.5" width="59" height="59" rx="29.5" fill="white" stroke="#EBEAEC"/>
<path d="M42.9998 30.7777C42.9998 29.7499 42.9147 28.9999 42.7305 28.2222H30.7549V32.861H37.7843C37.6426 34.0138 36.8773 35.75 35.1766 36.9166L35.1528 37.0719L38.9393 39.9466L39.2016 39.9722C41.6108 37.7916 42.9998 34.5833 42.9998 30.7777Z" fill="#4285F4"/>
<path d="M30.7549 43C34.1988 43 37.0899 41.8888 39.2016 39.9722L35.1767 36.9166C34.0996 37.6527 32.654 38.1666 30.7549 38.1666C27.3819 38.1666 24.5192 35.9861 23.4987 32.9722L23.3491 32.9846L19.4118 35.9707L19.3604 36.111C21.4578 40.1943 25.7662 43 30.7549 43Z" fill="#34A853"/>
<path d="M23.4988 32.9721C23.2295 32.1943 23.0737 31.3609 23.0737 30.4999C23.0737 29.6387 23.2295 28.8054 23.4846 28.0276L23.4775 27.862L19.4909 24.8279L19.3605 24.8887C18.496 26.5832 18 28.486 18 30.4999C18 32.5138 18.496 34.4165 19.3605 36.111L23.4988 32.9721Z" fill="#FBBC05"/>
<path d="M30.7559 22.8333C33.151 22.8333 34.7666 23.8472 35.6879 24.6945L39.2876 21.25C37.0768 19.2361 34.1997 18 30.7559 18C25.7672 18 21.4588 20.8055 19.3613 24.8889L23.4855 28.0278C24.5201 25.0139 27.3829 22.8333 30.7559 22.8333Z" fill="#EB4335"/>
</svg>
