<svg width="40" height="40" viewBox="0 0 40 40" fill="none" xmlns="http://www.w3.org/2000/svg">
<g filter="url(#filter0_i_850_1250)">
<path d="M20.7158 13.8452H36.2033C37.1333 13.8452 37.8883 14.6002 37.8883 15.5302V35.0002H20.7158V13.8452Z" fill="url(#paint0_linear_850_1250)"/>
<path d="M20.7158 13.8452H36.2033C37.1333 13.8452 37.8883 14.6002 37.8883 15.5302V35.0002H20.7158V13.8452Z" fill="url(#paint1_linear_850_1250)"/>
<path d="M20.7158 13.8452H36.2033C37.1333 13.8452 37.8883 14.6002 37.8883 15.5302V35.0002H20.7158V13.8452Z" fill="url(#paint2_radial_850_1250)"/>
</g>
<path d="M19.7676 34.4951H37.8888V36.6014H37.4676L37.0463 37.0239H19.7676V34.4951Z" fill="url(#paint3_linear_850_1250)"/>
<path d="M19.7676 34.4951H37.8888V36.6014H37.4676L37.0463 37.0239H19.7676V34.4951Z" fill="url(#paint4_linear_850_1250)"/>
<path d="M20.6095 13.8452C20.4435 13.8451 20.279 13.8776 20.1256 13.9411C19.9722 14.0045 19.8329 14.0976 19.7155 14.215C19.5981 14.3324 19.505 14.4718 19.4416 14.6252C19.3781 14.7786 19.3455 14.943 19.3457 15.109V35.759H20.1882C20.1882 35.294 20.5657 34.9165 21.0307 34.9165H21.8745V13.8452H20.6095Z" fill="url(#paint5_linear_850_1250)"/>
<path d="M20.6095 13.8452C20.4435 13.8451 20.279 13.8776 20.1256 13.9411C19.9722 14.0045 19.8329 14.0976 19.7155 14.215C19.5981 14.3324 19.505 14.4718 19.4416 14.6252C19.3781 14.7786 19.3455 14.943 19.3457 15.109V35.759H20.1882C20.1882 35.294 20.5657 34.9165 21.0307 34.9165H21.8745V13.8452H20.6095Z" fill="url(#paint6_radial_850_1250)"/>
<g filter="url(#filter1_i_850_1250)">
<path d="M20.6095 34.0737C20.4435 34.0736 20.279 34.1061 20.1256 34.1696C19.9722 34.233 19.8329 34.3261 19.7155 34.4435C19.5981 34.5609 19.505 34.7003 19.4416 34.8537C19.3781 35.0071 19.3455 35.1715 19.3457 35.3375V36.18C19.3457 36.8787 19.912 37.445 20.6095 37.445H36.9682C37.5182 37.445 37.8882 37.1625 37.8882 36.6012H21.0307C20.8073 36.6012 20.593 36.5125 20.435 36.3545C20.277 36.1965 20.1882 35.9822 20.1882 35.7587C20.1882 35.5353 20.277 35.321 20.435 35.163C20.593 35.005 20.8073 34.9162 21.0307 34.9162H37.8882V34.0737H20.6095Z" fill="url(#paint7_linear_850_1250)"/>
</g>
<path d="M13.0459 8.79492H27.3746C28.3059 8.79492 29.0609 9.54992 29.0609 10.4812V29.0237H13.0459V8.79492Z" fill="url(#paint8_linear_850_1250)"/>
<path d="M13.0459 8.79492H27.3746C28.3059 8.79492 29.0609 9.54992 29.0609 10.4812V29.0237H13.0459V8.79492Z" fill="url(#paint9_linear_850_1250)"/>
<path d="M13.0459 8.79492H27.3746C28.3059 8.79492 29.0609 9.54992 29.0609 10.4812V29.0237H13.0459V8.79492Z" fill="url(#paint10_radial_850_1250)"/>
<path d="M10.9385 29.4448H29.0622V31.5523H28.641L28.2185 31.9736H10.9385V29.4448Z" fill="url(#paint11_linear_850_1250)"/>
<path d="M10.9385 29.4448H29.0622V31.5523H28.641L28.2185 31.9736H10.9385V29.4448Z" fill="url(#paint12_linear_850_1250)"/>
<path d="M11.7826 8.79492C11.0838 8.79492 10.5176 9.36117 10.5176 10.0599V30.7099H11.3613C11.3613 30.2437 11.7376 29.8662 12.2038 29.8662H13.0463V8.79492H11.7826Z" fill="url(#paint13_linear_850_1250)"/>
<path d="M11.7826 8.79492C11.0838 8.79492 10.5176 9.36117 10.5176 10.0599V30.7099H11.3613C11.3613 30.2437 11.7376 29.8662 12.2038 29.8662H13.0463V8.79492H11.7826Z" fill="url(#paint14_radial_850_1250)"/>
<path d="M11.7826 8.79492C11.0838 8.79492 10.5176 9.36117 10.5176 10.0599V30.7099H11.3613C11.3613 30.2437 11.7376 29.8662 12.2038 29.8662H13.0463V8.79492H11.7826Z" fill="url(#paint15_radial_850_1250)"/>
<g filter="url(#filter2_i_850_1250)">
<path d="M11.7826 29.0252C11.6166 29.0248 11.4521 29.0573 11.2987 29.1206C11.1452 29.1839 11.0057 29.2768 10.8882 29.3941C10.7707 29.5113 10.6775 29.6506 10.6139 29.804C10.5503 29.9573 10.5176 30.1217 10.5176 30.2877V31.1314C10.5176 31.8289 11.0838 32.3952 11.7826 32.3952H28.1401C28.6901 32.3952 29.0613 32.1139 29.0613 31.5527H12.2038C11.9802 31.5527 11.7658 31.4638 11.6076 31.3057C11.4495 31.1476 11.3607 30.9332 11.3607 30.7095C11.3607 30.4859 11.4495 30.2715 11.6076 30.1134C11.7658 29.9553 11.9802 29.8664 12.2038 29.8664H29.0613V29.0239L11.7826 29.0252Z" fill="url(#paint16_linear_850_1250)"/>
</g>
<g filter="url(#filter3_i_850_1250)">
<path d="M4.10254 5H19.5863C20.5163 5 21.2713 5.755 21.2713 6.685V25.2225H4.10254V5Z" fill="url(#paint17_linear_850_1250)"/>
<path d="M4.10254 5H19.5863C20.5163 5 21.2713 5.755 21.2713 6.685V25.2225H4.10254V5Z" fill="url(#paint18_linear_850_1250)"/>
</g>
<path d="M3.15457 25.645H21.2708V27.75H20.8496L20.4283 28.1713H3.15332L3.15457 25.645Z" fill="url(#paint19_linear_850_1250)"/>
<path d="M3.15457 25.645H21.2708V27.75H20.8496L20.4283 28.1713H3.15332L3.15457 25.645Z" fill="url(#paint20_linear_850_1250)"/>
<path d="M3.99715 5C3.83114 4.99984 3.66674 5.03241 3.51334 5.09586C3.35994 5.15931 3.22056 5.25239 3.10318 5.36978C2.98579 5.48716 2.89271 5.62654 2.82926 5.77994C2.76581 5.93334 2.73323 6.09775 2.7334 6.26375V26.9088H3.5759C3.5759 26.4425 3.9534 26.0663 4.4184 26.0663H5.2609V5H3.99715Z" fill="url(#paint21_linear_850_1250)"/>
<g filter="url(#filter4_i_850_1250)">
<path d="M3.99715 25.2236C3.83125 25.2235 3.66695 25.256 3.51363 25.3194C3.36031 25.3827 3.22098 25.4757 3.10362 25.593C2.98625 25.7102 2.89315 25.8495 2.82962 26.0027C2.7661 26.156 2.7334 26.3202 2.7334 26.4861V27.3299C2.73323 27.4958 2.76577 27.6601 2.82914 27.8134C2.89252 27.9667 2.98548 28.106 3.10273 28.2234C3.21998 28.3408 3.35922 28.4339 3.51247 28.4974C3.66573 28.5609 3.83 28.5936 3.9959 28.5936H20.3509C20.9009 28.5936 21.2709 28.3111 21.2709 27.7511H4.4184C4.19495 27.7511 3.98066 27.6624 3.82266 27.5044C3.66466 27.3464 3.5759 27.1321 3.5759 26.9086C3.5759 26.6852 3.66466 26.4709 3.82266 26.3129C3.98066 26.1549 4.19495 26.0661 4.4184 26.0661H21.2709V25.2236H3.99715Z" fill="url(#paint22_linear_850_1250)"/>
</g>
<defs>
<filter id="filter0_i_850_1250" x="20.7158" y="13.8452" width="17.1729" height="21.2298" filterUnits="userSpaceOnUse" color-interpolation-filters="sRGB">
<feFlood flood-opacity="0" result="BackgroundImageFix"/>
<feBlend mode="normal" in="SourceGraphic" in2="BackgroundImageFix" result="shape"/>
<feColorMatrix in="SourceAlpha" type="matrix" values="0 0 0 0 0 0 0 0 0 0 0 0 0 0 0 0 0 0 127 0" result="hardAlpha"/>
<feOffset dy="0.075"/>
<feGaussianBlur stdDeviation="0.1875"/>
<feComposite in2="hardAlpha" operator="arithmetic" k2="-1" k3="1"/>
<feColorMatrix type="matrix" values="0 0 0 0 0.32549 0 0 0 0 0.807843 0 0 0 0 0.933333 0 0 0 1 0"/>
<feBlend mode="normal" in2="shape" result="effect1_innerShadow_850_1250"/>
</filter>
<filter id="filter1_i_850_1250" x="19.3457" y="34.0737" width="18.543" height="3.44609" filterUnits="userSpaceOnUse" color-interpolation-filters="sRGB">
<feFlood flood-opacity="0" result="BackgroundImageFix"/>
<feBlend mode="normal" in="SourceGraphic" in2="BackgroundImageFix" result="shape"/>
<feColorMatrix in="SourceAlpha" type="matrix" values="0 0 0 0 0 0 0 0 0 0 0 0 0 0 0 0 0 0 127 0" result="hardAlpha"/>
<feOffset dy="0.075"/>
<feGaussianBlur stdDeviation="0.1125"/>
<feComposite in2="hardAlpha" operator="arithmetic" k2="-1" k3="1"/>
<feColorMatrix type="matrix" values="0 0 0 0 0.168627 0 0 0 0 0.388235 0 0 0 0 0.74902 0 0 0 1 0"/>
<feBlend mode="normal" in2="shape" result="effect1_innerShadow_850_1250"/>
</filter>
<filter id="filter2_i_850_1250" x="10.5176" y="29.0239" width="18.5439" height="3.44609" filterUnits="userSpaceOnUse" color-interpolation-filters="sRGB">
<feFlood flood-opacity="0" result="BackgroundImageFix"/>
<feBlend mode="normal" in="SourceGraphic" in2="BackgroundImageFix" result="shape"/>
<feColorMatrix in="SourceAlpha" type="matrix" values="0 0 0 0 0 0 0 0 0 0 0 0 0 0 0 0 0 0 127 0" result="hardAlpha"/>
<feOffset dy="0.075"/>
<feGaussianBlur stdDeviation="0.1125"/>
<feComposite in2="hardAlpha" operator="arithmetic" k2="-1" k3="1"/>
<feColorMatrix type="matrix" values="0 0 0 0 0.694118 0 0 0 0 0.192157 0 0 0 0 0.360784 0 0 0 1 0"/>
<feBlend mode="normal" in2="shape" result="effect1_innerShadow_850_1250"/>
</filter>
<filter id="filter3_i_850_1250" x="4.10254" y="5" width="17.1689" height="20.2977" filterUnits="userSpaceOnUse" color-interpolation-filters="sRGB">
<feFlood flood-opacity="0" result="BackgroundImageFix"/>
<feBlend mode="normal" in="SourceGraphic" in2="BackgroundImageFix" result="shape"/>
<feColorMatrix in="SourceAlpha" type="matrix" values="0 0 0 0 0 0 0 0 0 0 0 0 0 0 0 0 0 0 127 0" result="hardAlpha"/>
<feOffset dy="0.075"/>
<feGaussianBlur stdDeviation="0.1875"/>
<feComposite in2="hardAlpha" operator="arithmetic" k2="-1" k3="1"/>
<feColorMatrix type="matrix" values="0 0 0 0 0.623529 0 0 0 0 0.858824 0 0 0 0 0.290196 0 0 0 1 0"/>
<feBlend mode="normal" in2="shape" result="effect1_innerShadow_850_1250"/>
</filter>
<filter id="filter4_i_850_1250" x="2.7334" y="25.2236" width="18.5371" height="3.44512" filterUnits="userSpaceOnUse" color-interpolation-filters="sRGB">
<feFlood flood-opacity="0" result="BackgroundImageFix"/>
<feBlend mode="normal" in="SourceGraphic" in2="BackgroundImageFix" result="shape"/>
<feColorMatrix in="SourceAlpha" type="matrix" values="0 0 0 0 0 0 0 0 0 0 0 0 0 0 0 0 0 0 127 0" result="hardAlpha"/>
<feOffset dy="0.075"/>
<feGaussianBlur stdDeviation="0.1125"/>
<feComposite in2="hardAlpha" operator="arithmetic" k2="-1" k3="1"/>
<feColorMatrix type="matrix" values="0 0 0 0 0.113725 0 0 0 0 0.435294 0 0 0 0 0.439216 0 0 0 1 0"/>
<feBlend mode="normal" in2="shape" result="effect1_innerShadow_850_1250"/>
</filter>
<linearGradient id="paint0_linear_850_1250" x1="29.8808" y1="13.8452" x2="29.8808" y2="34.074" gradientUnits="userSpaceOnUse">
<stop stop-color="#56D1F3"/>
<stop offset="1" stop-color="#39ADF1"/>
</linearGradient>
<linearGradient id="paint1_linear_850_1250" x1="38.0196" y1="16.8215" x2="36.3608" y2="17.0577" gradientUnits="userSpaceOnUse">
<stop offset="0.014" stop-color="#7FECFF"/>
<stop offset="1" stop-color="#60DEFF" stop-opacity="0"/>
</linearGradient>
<radialGradient id="paint2_radial_850_1250" cx="0" cy="0" r="1" gradientUnits="userSpaceOnUse" gradientTransform="translate(21.7671 34.074) scale(7.53438 6.39636)">
<stop stop-color="#2E7CD5"/>
<stop offset="1" stop-color="#2E7CD5" stop-opacity="0"/>
</radialGradient>
<linearGradient id="paint3_linear_850_1250" x1="20.7976" y1="36.1089" x2="37.7363" y2="36.1089" gradientUnits="userSpaceOnUse">
<stop stop-color="#D5BCEB"/>
<stop offset="1" stop-color="#E3D3F2"/>
</linearGradient>
<linearGradient id="paint4_linear_850_1250" x1="28.8288" y1="34.6951" x2="28.8288" y2="35.8914" gradientUnits="userSpaceOnUse">
<stop stop-color="#9F84AE"/>
<stop offset="1" stop-color="#C5B1D6" stop-opacity="0"/>
</linearGradient>
<linearGradient id="paint5_linear_850_1250" x1="19.5182" y1="26.2665" x2="21.5057" y2="26.2765" gradientUnits="userSpaceOnUse">
<stop stop-color="#44A3D2"/>
<stop offset="1" stop-color="#3C8FCC"/>
</linearGradient>
<radialGradient id="paint6_radial_850_1250" cx="0" cy="0" r="1" gradientUnits="userSpaceOnUse" gradientTransform="translate(21.8745 32.0315) rotate(90) scale(5.27344 3.07545)">
<stop stop-color="#3163AE"/>
<stop offset="1" stop-color="#3163AE" stop-opacity="0"/>
</radialGradient>
<linearGradient id="paint7_linear_850_1250" x1="20.552" y1="36.5712" x2="37.8882" y2="36.5437" gradientUnits="userSpaceOnUse">
<stop stop-color="#3769C5"/>
<stop offset="1" stop-color="#3666C3"/>
</linearGradient>
<linearGradient id="paint8_linear_850_1250" x1="21.0534" y1="8.79492" x2="21.0534" y2="29.0237" gradientUnits="userSpaceOnUse">
<stop stop-color="#E13074"/>
<stop offset="1" stop-color="#E0334C"/>
</linearGradient>
<linearGradient id="paint9_linear_850_1250" x1="30.4846" y1="11.6462" x2="28.2009" y2="11.7274" gradientUnits="userSpaceOnUse">
<stop offset="0.409" stop-color="#F76594"/>
<stop offset="1" stop-color="#FA6295" stop-opacity="0"/>
</linearGradient>
<radialGradient id="paint10_radial_850_1250" cx="0" cy="0" r="1" gradientUnits="userSpaceOnUse" gradientTransform="translate(13.7596 28.5162) scale(8.4375 6.82775)">
<stop stop-color="#B21940"/>
<stop offset="1" stop-color="#B21940" stop-opacity="0"/>
</radialGradient>
<linearGradient id="paint11_linear_850_1250" x1="11.9685" y1="31.0598" x2="28.9085" y2="31.0598" gradientUnits="userSpaceOnUse">
<stop stop-color="#D5BCEB"/>
<stop offset="1" stop-color="#E3D3F2"/>
</linearGradient>
<linearGradient id="paint12_linear_850_1250" x1="19.9997" y1="29.6461" x2="19.9997" y2="30.8423" gradientUnits="userSpaceOnUse">
<stop stop-color="#9F84AE"/>
<stop offset="1" stop-color="#C5B1D6" stop-opacity="0"/>
</linearGradient>
<linearGradient id="paint13_linear_850_1250" x1="10.6913" y1="21.2174" x2="13.0463" y2="21.2174" gradientUnits="userSpaceOnUse">
<stop stop-color="#9A3E4F"/>
<stop offset="1" stop-color="#AA2C4D"/>
</linearGradient>
<radialGradient id="paint14_radial_850_1250" cx="0" cy="0" r="1" gradientUnits="userSpaceOnUse" gradientTransform="translate(10.8538 29.5912) rotate(-90) scale(5.60113 0.98695)">
<stop stop-color="#9B3F51"/>
<stop offset="1" stop-color="#9B3F51" stop-opacity="0"/>
</radialGradient>
<radialGradient id="paint15_radial_850_1250" cx="0" cy="0" r="1" gradientUnits="userSpaceOnUse" gradientTransform="translate(13.0426 27.9312) rotate(90) scale(4.10156 2.33326)">
<stop offset="0.267" stop-color="#8F163A"/>
<stop offset="1" stop-color="#8F163A" stop-opacity="0"/>
</radialGradient>
<linearGradient id="paint16_linear_850_1250" x1="11.7238" y1="31.5227" x2="29.0613" y2="31.4952" gradientUnits="userSpaceOnUse">
<stop stop-color="#AB1F5C"/>
<stop offset="1" stop-color="#A51E5A"/>
</linearGradient>
<linearGradient id="paint17_linear_850_1250" x1="13.2663" y1="5" x2="13.2663" y2="25.2237" gradientUnits="userSpaceOnUse">
<stop stop-color="#A6E051"/>
<stop offset="1" stop-color="#74D891"/>
</linearGradient>
<linearGradient id="paint18_linear_850_1250" x1="21.4025" y1="7.975" x2="19.7438" y2="8.2125" gradientUnits="userSpaceOnUse">
<stop offset="0.014" stop-color="#C0FA7C"/>
<stop offset="1" stop-color="#B0ED5B" stop-opacity="0"/>
</linearGradient>
<linearGradient id="paint19_linear_850_1250" x1="4.18332" y1="27.2588" x2="21.1183" y2="27.2588" gradientUnits="userSpaceOnUse">
<stop stop-color="#D5BCEB"/>
<stop offset="1" stop-color="#E3D3F2"/>
</linearGradient>
<linearGradient id="paint20_linear_850_1250" x1="12.2121" y1="25.845" x2="12.2121" y2="27.0413" gradientUnits="userSpaceOnUse">
<stop stop-color="#9F84AE"/>
<stop offset="1" stop-color="#C5B1D6" stop-opacity="0"/>
</linearGradient>
<linearGradient id="paint21_linear_850_1250" x1="2.9059" y1="17.4188" x2="4.89215" y2="17.4288" gradientUnits="userSpaceOnUse">
<stop stop-color="#63B33B"/>
<stop offset="1" stop-color="#429B5B"/>
</linearGradient>
<linearGradient id="paint22_linear_850_1250" x1="3.9384" y1="27.7211" x2="21.2709" y2="27.6936" gradientUnits="userSpaceOnUse">
<stop stop-color="#2E7671"/>
<stop offset="1" stop-color="#2E7172"/>
</linearGradient>
</defs>
</svg>
