<svg width="24" height="24" viewBox="0 0 24 24" fill="none" xmlns="http://www.w3.org/2000/svg">
<path d="M7.74338 3.66709C8.58038 2.72509 9.71888 2.87509 10.4471 3.66709L10.8911 4.18159C10.967 4.26403 11.0607 4.32803 11.1651 4.36872C11.2694 4.40941 11.3817 4.42569 11.4934 4.41634L12.2831 4.18159C13.3594 3.95059 14.3374 4.75384 14.3374 6.00034V6.47059C14.3599 6.72634 14.5841 6.90034 14.8151 7.01359L15.5284 7.31134C16.5604 7.81534 16.8184 9.01084 16.0669 10.0151L15.8531 10.2963C15.6619 10.5558 15.7009 10.8956 15.8914 11.1551L16.1051 11.4543C16.8829 12.4106 16.4441 13.7231 15.3461 14.1813L14.7326 14.4378C14.5009 14.5346 14.4101 14.7003 14.3674 14.9478L14.3246 15.7496C14.2984 15.9736 14.2279 16.1902 14.1172 16.3868C14.0065 16.5833 13.8578 16.7559 13.6797 16.8943C13.5016 17.0328 13.2978 17.1345 13.08 17.1934C12.8623 17.2524 12.635 17.2674 12.4114 17.2376L11.4761 16.9878C11.2511 16.9563 10.9721 17.0306 10.8229 17.2653L10.4854 17.7266C9.64838 18.6701 8.51813 18.5141 7.94888 17.9613L7.32638 17.2076C7.16288 17.0501 6.95813 16.9151 6.71138 17.0081L5.77088 17.2653C4.99313 17.3756 4.07813 16.7778 3.93188 16.0068L3.82313 14.8908C3.80133 14.7764 3.75262 14.6687 3.68103 14.5768C3.60944 14.4849 3.51701 14.4113 3.41138 14.3621L2.75138 14.1348C1.75838 13.6721 1.42613 12.5523 1.99613 11.6171L2.36813 11.1018C2.44139 10.9817 2.47864 10.8431 2.47545 10.7024C2.47226 10.5618 2.42876 10.425 2.35013 10.3083L2.07263 9.91609C1.28663 8.79709 1.82963 7.54609 2.99438 7.17109L3.25088 7.08859C3.53438 6.99709 3.80813 6.76234 3.83213 6.46534L3.88913 5.74534C3.98213 4.57534 5.04938 3.90409 6.17138 4.24534L6.53513 4.35559C6.88538 4.49209 7.15988 4.37584 7.35038 4.16809L7.74338 3.66709Z" fill="url(#paint0_linear_1060_1031)"/>
<path d="M7.74338 3.66709C8.58038 2.72509 9.71888 2.87509 10.4471 3.66709L10.8911 4.18159C10.967 4.26403 11.0607 4.32803 11.1651 4.36872C11.2694 4.40941 11.3817 4.42569 11.4934 4.41634L12.2831 4.18159C13.3594 3.95059 14.3374 4.75384 14.3374 6.00034V6.47059C14.3599 6.72634 14.5841 6.90034 14.8151 7.01359L15.5284 7.31134C16.5604 7.81534 16.8184 9.01084 16.0669 10.0151L15.8531 10.2963C15.6619 10.5558 15.7009 10.8956 15.8914 11.1551L16.1051 11.4543C16.8829 12.4106 16.4441 13.7231 15.3461 14.1813L14.7326 14.4378C14.5009 14.5346 14.4101 14.7003 14.3674 14.9478L14.3246 15.7496C14.2984 15.9736 14.2279 16.1902 14.1172 16.3868C14.0065 16.5833 13.8578 16.7559 13.6797 16.8943C13.5016 17.0328 13.2978 17.1345 13.08 17.1934C12.8623 17.2524 12.635 17.2674 12.4114 17.2376L11.4761 16.9878C11.2511 16.9563 10.9721 17.0306 10.8229 17.2653L10.4854 17.7266C9.64838 18.6701 8.51813 18.5141 7.94888 17.9613L7.32638 17.2076C7.16288 17.0501 6.95813 16.9151 6.71138 17.0081L5.77088 17.2653C4.99313 17.3756 4.07813 16.7778 3.93188 16.0068L3.82313 14.8908C3.80133 14.7764 3.75262 14.6687 3.68103 14.5768C3.60944 14.4849 3.51701 14.4113 3.41138 14.3621L2.75138 14.1348C1.75838 13.6721 1.42613 12.5523 1.99613 11.6171L2.36813 11.1018C2.44139 10.9817 2.47864 10.8431 2.47545 10.7024C2.47226 10.5618 2.42876 10.425 2.35013 10.3083L2.07263 9.91609C1.28663 8.79709 1.82963 7.54609 2.99438 7.17109L3.25088 7.08859C3.53438 6.99709 3.80813 6.76234 3.83213 6.46534L3.88913 5.74534C3.98213 4.57534 5.04938 3.90409 6.17138 4.24534L6.53513 4.35559C6.88538 4.49209 7.15988 4.37584 7.35038 4.16809L7.74338 3.66709Z" fill="url(#paint1_radial_1060_1031)"/>
<path d="M7.74338 3.66709C8.58038 2.72509 9.71888 2.87509 10.4471 3.66709L10.8911 4.18159C10.967 4.26403 11.0607 4.32803 11.1651 4.36872C11.2694 4.40941 11.3817 4.42569 11.4934 4.41634L12.2831 4.18159C13.3594 3.95059 14.3374 4.75384 14.3374 6.00034V6.47059C14.3599 6.72634 14.5841 6.90034 14.8151 7.01359L15.5284 7.31134C16.5604 7.81534 16.8184 9.01084 16.0669 10.0151L15.8531 10.2963C15.6619 10.5558 15.7009 10.8956 15.8914 11.1551L16.1051 11.4543C16.8829 12.4106 16.4441 13.7231 15.3461 14.1813L14.7326 14.4378C14.5009 14.5346 14.4101 14.7003 14.3674 14.9478L14.3246 15.7496C14.2984 15.9736 14.2279 16.1902 14.1172 16.3868C14.0065 16.5833 13.8578 16.7559 13.6797 16.8943C13.5016 17.0328 13.2978 17.1345 13.08 17.1934C12.8623 17.2524 12.635 17.2674 12.4114 17.2376L11.4761 16.9878C11.2511 16.9563 10.9721 17.0306 10.8229 17.2653L10.4854 17.7266C9.64838 18.6701 8.51813 18.5141 7.94888 17.9613L7.32638 17.2076C7.16288 17.0501 6.95813 16.9151 6.71138 17.0081L5.77088 17.2653C4.99313 17.3756 4.07813 16.7778 3.93188 16.0068L3.82313 14.8908C3.80133 14.7764 3.75262 14.6687 3.68103 14.5768C3.60944 14.4849 3.51701 14.4113 3.41138 14.3621L2.75138 14.1348C1.75838 13.6721 1.42613 12.5523 1.99613 11.6171L2.36813 11.1018C2.44139 10.9817 2.47864 10.8431 2.47545 10.7024C2.47226 10.5618 2.42876 10.425 2.35013 10.3083L2.07263 9.91609C1.28663 8.79709 1.82963 7.54609 2.99438 7.17109L3.25088 7.08859C3.53438 6.99709 3.80813 6.76234 3.83213 6.46534L3.88913 5.74534C3.98213 4.57534 5.04938 3.90409 6.17138 4.24534L6.53513 4.35559C6.88538 4.49209 7.15988 4.37584 7.35038 4.16809L7.74338 3.66709Z" fill="url(#paint2_radial_1060_1031)"/>
<path d="M7.74338 3.66709C8.58038 2.72509 9.71888 2.87509 10.4471 3.66709L10.8911 4.18159C10.967 4.26403 11.0607 4.32803 11.1651 4.36872C11.2694 4.40941 11.3817 4.42569 11.4934 4.41634L12.2831 4.18159C13.3594 3.95059 14.3374 4.75384 14.3374 6.00034V6.47059C14.3599 6.72634 14.5841 6.90034 14.8151 7.01359L15.5284 7.31134C16.5604 7.81534 16.8184 9.01084 16.0669 10.0151L15.8531 10.2963C15.6619 10.5558 15.7009 10.8956 15.8914 11.1551L16.1051 11.4543C16.8829 12.4106 16.4441 13.7231 15.3461 14.1813L14.7326 14.4378C14.5009 14.5346 14.4101 14.7003 14.3674 14.9478L14.3246 15.7496C14.2984 15.9736 14.2279 16.1902 14.1172 16.3868C14.0065 16.5833 13.8578 16.7559 13.6797 16.8943C13.5016 17.0328 13.2978 17.1345 13.08 17.1934C12.8623 17.2524 12.635 17.2674 12.4114 17.2376L11.4761 16.9878C11.2511 16.9563 10.9721 17.0306 10.8229 17.2653L10.4854 17.7266C9.64838 18.6701 8.51813 18.5141 7.94888 17.9613L7.32638 17.2076C7.16288 17.0501 6.95813 16.9151 6.71138 17.0081L5.77088 17.2653C4.99313 17.3756 4.07813 16.7778 3.93188 16.0068L3.82313 14.8908C3.80133 14.7764 3.75262 14.6687 3.68103 14.5768C3.60944 14.4849 3.51701 14.4113 3.41138 14.3621L2.75138 14.1348C1.75838 13.6721 1.42613 12.5523 1.99613 11.6171L2.36813 11.1018C2.44139 10.9817 2.47864 10.8431 2.47545 10.7024C2.47226 10.5618 2.42876 10.425 2.35013 10.3083L2.07263 9.91609C1.28663 8.79709 1.82963 7.54609 2.99438 7.17109L3.25088 7.08859C3.53438 6.99709 3.80813 6.76234 3.83213 6.46534L3.88913 5.74534C3.98213 4.57534 5.04938 3.90409 6.17138 4.24534L6.53513 4.35559C6.88538 4.49209 7.15988 4.37584 7.35038 4.16809L7.74338 3.66709Z" fill="url(#paint3_radial_1060_1031)"/>
<path d="M7.74338 3.66709C8.58038 2.72509 9.71888 2.87509 10.4471 3.66709L10.8911 4.18159C10.967 4.26403 11.0607 4.32803 11.1651 4.36872C11.2694 4.40941 11.3817 4.42569 11.4934 4.41634L12.2831 4.18159C13.3594 3.95059 14.3374 4.75384 14.3374 6.00034V6.47059C14.3599 6.72634 14.5841 6.90034 14.8151 7.01359L15.5284 7.31134C16.5604 7.81534 16.8184 9.01084 16.0669 10.0151L15.8531 10.2963C15.6619 10.5558 15.7009 10.8956 15.8914 11.1551L16.1051 11.4543C16.8829 12.4106 16.4441 13.7231 15.3461 14.1813L14.7326 14.4378C14.5009 14.5346 14.4101 14.7003 14.3674 14.9478L14.3246 15.7496C14.2984 15.9736 14.2279 16.1902 14.1172 16.3868C14.0065 16.5833 13.8578 16.7559 13.6797 16.8943C13.5016 17.0328 13.2978 17.1345 13.08 17.1934C12.8623 17.2524 12.635 17.2674 12.4114 17.2376L11.4761 16.9878C11.2511 16.9563 10.9721 17.0306 10.8229 17.2653L10.4854 17.7266C9.64838 18.6701 8.51813 18.5141 7.94888 17.9613L7.32638 17.2076C7.16288 17.0501 6.95813 16.9151 6.71138 17.0081L5.77088 17.2653C4.99313 17.3756 4.07813 16.7778 3.93188 16.0068L3.82313 14.8908C3.80133 14.7764 3.75262 14.6687 3.68103 14.5768C3.60944 14.4849 3.51701 14.4113 3.41138 14.3621L2.75138 14.1348C1.75838 13.6721 1.42613 12.5523 1.99613 11.6171L2.36813 11.1018C2.44139 10.9817 2.47864 10.8431 2.47545 10.7024C2.47226 10.5618 2.42876 10.425 2.35013 10.3083L2.07263 9.91609C1.28663 8.79709 1.82963 7.54609 2.99438 7.17109L3.25088 7.08859C3.53438 6.99709 3.80813 6.76234 3.83213 6.46534L3.88913 5.74534C3.98213 4.57534 5.04938 3.90409 6.17138 4.24534L6.53513 4.35559C6.88538 4.49209 7.15988 4.37584 7.35038 4.16809L7.74338 3.66709Z" fill="url(#paint4_radial_1060_1031)"/>
<path d="M7.74338 3.66709C8.58038 2.72509 9.71888 2.87509 10.4471 3.66709L10.8911 4.18159C10.967 4.26403 11.0607 4.32803 11.1651 4.36872C11.2694 4.40941 11.3817 4.42569 11.4934 4.41634L12.2831 4.18159C13.3594 3.95059 14.3374 4.75384 14.3374 6.00034V6.47059C14.3599 6.72634 14.5841 6.90034 14.8151 7.01359L15.5284 7.31134C16.5604 7.81534 16.8184 9.01084 16.0669 10.0151L15.8531 10.2963C15.6619 10.5558 15.7009 10.8956 15.8914 11.1551L16.1051 11.4543C16.8829 12.4106 16.4441 13.7231 15.3461 14.1813L14.7326 14.4378C14.5009 14.5346 14.4101 14.7003 14.3674 14.9478L14.3246 15.7496C14.2984 15.9736 14.2279 16.1902 14.1172 16.3868C14.0065 16.5833 13.8578 16.7559 13.6797 16.8943C13.5016 17.0328 13.2978 17.1345 13.08 17.1934C12.8623 17.2524 12.635 17.2674 12.4114 17.2376L11.4761 16.9878C11.2511 16.9563 10.9721 17.0306 10.8229 17.2653L10.4854 17.7266C9.64838 18.6701 8.51813 18.5141 7.94888 17.9613L7.32638 17.2076C7.16288 17.0501 6.95813 16.9151 6.71138 17.0081L5.77088 17.2653C4.99313 17.3756 4.07813 16.7778 3.93188 16.0068L3.82313 14.8908C3.80133 14.7764 3.75262 14.6687 3.68103 14.5768C3.60944 14.4849 3.51701 14.4113 3.41138 14.3621L2.75138 14.1348C1.75838 13.6721 1.42613 12.5523 1.99613 11.6171L2.36813 11.1018C2.44139 10.9817 2.47864 10.8431 2.47545 10.7024C2.47226 10.5618 2.42876 10.425 2.35013 10.3083L2.07263 9.91609C1.28663 8.79709 1.82963 7.54609 2.99438 7.17109L3.25088 7.08859C3.53438 6.99709 3.80813 6.76234 3.83213 6.46534L3.88913 5.74534C3.98213 4.57534 5.04938 3.90409 6.17138 4.24534L6.53513 4.35559C6.88538 4.49209 7.15988 4.37584 7.35038 4.16809L7.74338 3.66709Z" fill="url(#paint5_radial_1060_1031)"/>
<path d="M7.74338 3.66709C8.58038 2.72509 9.71888 2.87509 10.4471 3.66709L10.8911 4.18159C10.967 4.26403 11.0607 4.32803 11.1651 4.36872C11.2694 4.40941 11.3817 4.42569 11.4934 4.41634L12.2831 4.18159C13.3594 3.95059 14.3374 4.75384 14.3374 6.00034V6.47059C14.3599 6.72634 14.5841 6.90034 14.8151 7.01359L15.5284 7.31134C16.5604 7.81534 16.8184 9.01084 16.0669 10.0151L15.8531 10.2963C15.6619 10.5558 15.7009 10.8956 15.8914 11.1551L16.1051 11.4543C16.8829 12.4106 16.4441 13.7231 15.3461 14.1813L14.7326 14.4378C14.5009 14.5346 14.4101 14.7003 14.3674 14.9478L14.3246 15.7496C14.2984 15.9736 14.2279 16.1902 14.1172 16.3868C14.0065 16.5833 13.8578 16.7559 13.6797 16.8943C13.5016 17.0328 13.2978 17.1345 13.08 17.1934C12.8623 17.2524 12.635 17.2674 12.4114 17.2376L11.4761 16.9878C11.2511 16.9563 10.9721 17.0306 10.8229 17.2653L10.4854 17.7266C9.64838 18.6701 8.51813 18.5141 7.94888 17.9613L7.32638 17.2076C7.16288 17.0501 6.95813 16.9151 6.71138 17.0081L5.77088 17.2653C4.99313 17.3756 4.07813 16.7778 3.93188 16.0068L3.82313 14.8908C3.80133 14.7764 3.75262 14.6687 3.68103 14.5768C3.60944 14.4849 3.51701 14.4113 3.41138 14.3621L2.75138 14.1348C1.75838 13.6721 1.42613 12.5523 1.99613 11.6171L2.36813 11.1018C2.44139 10.9817 2.47864 10.8431 2.47545 10.7024C2.47226 10.5618 2.42876 10.425 2.35013 10.3083L2.07263 9.91609C1.28663 8.79709 1.82963 7.54609 2.99438 7.17109L3.25088 7.08859C3.53438 6.99709 3.80813 6.76234 3.83213 6.46534L3.88913 5.74534C3.98213 4.57534 5.04938 3.90409 6.17138 4.24534L6.53513 4.35559C6.88538 4.49209 7.15988 4.37584 7.35038 4.16809L7.74338 3.66709Z" fill="url(#paint6_radial_1060_1031)"/>
<path d="M7.74338 3.66709C8.58038 2.72509 9.71888 2.87509 10.4471 3.66709L10.8911 4.18159C10.967 4.26403 11.0607 4.32803 11.1651 4.36872C11.2694 4.40941 11.3817 4.42569 11.4934 4.41634L12.2831 4.18159C13.3594 3.95059 14.3374 4.75384 14.3374 6.00034V6.47059C14.3599 6.72634 14.5841 6.90034 14.8151 7.01359L15.5284 7.31134C16.5604 7.81534 16.8184 9.01084 16.0669 10.0151L15.8531 10.2963C15.6619 10.5558 15.7009 10.8956 15.8914 11.1551L16.1051 11.4543C16.8829 12.4106 16.4441 13.7231 15.3461 14.1813L14.7326 14.4378C14.5009 14.5346 14.4101 14.7003 14.3674 14.9478L14.3246 15.7496C14.2984 15.9736 14.2279 16.1902 14.1172 16.3868C14.0065 16.5833 13.8578 16.7559 13.6797 16.8943C13.5016 17.0328 13.2978 17.1345 13.08 17.1934C12.8623 17.2524 12.635 17.2674 12.4114 17.2376L11.4761 16.9878C11.2511 16.9563 10.9721 17.0306 10.8229 17.2653L10.4854 17.7266C9.64838 18.6701 8.51813 18.5141 7.94888 17.9613L7.32638 17.2076C7.16288 17.0501 6.95813 16.9151 6.71138 17.0081L5.77088 17.2653C4.99313 17.3756 4.07813 16.7778 3.93188 16.0068L3.82313 14.8908C3.80133 14.7764 3.75262 14.6687 3.68103 14.5768C3.60944 14.4849 3.51701 14.4113 3.41138 14.3621L2.75138 14.1348C1.75838 13.6721 1.42613 12.5523 1.99613 11.6171L2.36813 11.1018C2.44139 10.9817 2.47864 10.8431 2.47545 10.7024C2.47226 10.5618 2.42876 10.425 2.35013 10.3083L2.07263 9.91609C1.28663 8.79709 1.82963 7.54609 2.99438 7.17109L3.25088 7.08859C3.53438 6.99709 3.80813 6.76234 3.83213 6.46534L3.88913 5.74534C3.98213 4.57534 5.04938 3.90409 6.17138 4.24534L6.53513 4.35559C6.88538 4.49209 7.15988 4.37584 7.35038 4.16809L7.74338 3.66709Z" fill="url(#paint7_radial_1060_1031)"/>
<path d="M7.74338 3.66709C8.58038 2.72509 9.71888 2.87509 10.4471 3.66709L10.8911 4.18159C10.967 4.26403 11.0607 4.32803 11.1651 4.36872C11.2694 4.40941 11.3817 4.42569 11.4934 4.41634L12.2831 4.18159C13.3594 3.95059 14.3374 4.75384 14.3374 6.00034V6.47059C14.3599 6.72634 14.5841 6.90034 14.8151 7.01359L15.5284 7.31134C16.5604 7.81534 16.8184 9.01084 16.0669 10.0151L15.8531 10.2963C15.6619 10.5558 15.7009 10.8956 15.8914 11.1551L16.1051 11.4543C16.8829 12.4106 16.4441 13.7231 15.3461 14.1813L14.7326 14.4378C14.5009 14.5346 14.4101 14.7003 14.3674 14.9478L14.3246 15.7496C14.2984 15.9736 14.2279 16.1902 14.1172 16.3868C14.0065 16.5833 13.8578 16.7559 13.6797 16.8943C13.5016 17.0328 13.2978 17.1345 13.08 17.1934C12.8623 17.2524 12.635 17.2674 12.4114 17.2376L11.4761 16.9878C11.2511 16.9563 10.9721 17.0306 10.8229 17.2653L10.4854 17.7266C9.64838 18.6701 8.51813 18.5141 7.94888 17.9613L7.32638 17.2076C7.16288 17.0501 6.95813 16.9151 6.71138 17.0081L5.77088 17.2653C4.99313 17.3756 4.07813 16.7778 3.93188 16.0068L3.82313 14.8908C3.80133 14.7764 3.75262 14.6687 3.68103 14.5768C3.60944 14.4849 3.51701 14.4113 3.41138 14.3621L2.75138 14.1348C1.75838 13.6721 1.42613 12.5523 1.99613 11.6171L2.36813 11.1018C2.44139 10.9817 2.47864 10.8431 2.47545 10.7024C2.47226 10.5618 2.42876 10.425 2.35013 10.3083L2.07263 9.91609C1.28663 8.79709 1.82963 7.54609 2.99438 7.17109L3.25088 7.08859C3.53438 6.99709 3.80813 6.76234 3.83213 6.46534L3.88913 5.74534C3.98213 4.57534 5.04938 3.90409 6.17138 4.24534L6.53513 4.35559C6.88538 4.49209 7.15988 4.37584 7.35038 4.16809L7.74338 3.66709Z" fill="url(#paint8_radial_1060_1031)"/>
<path d="M7.74338 3.66709C8.58038 2.72509 9.71888 2.87509 10.4471 3.66709L10.8911 4.18159C10.967 4.26403 11.0607 4.32803 11.1651 4.36872C11.2694 4.40941 11.3817 4.42569 11.4934 4.41634L12.2831 4.18159C13.3594 3.95059 14.3374 4.75384 14.3374 6.00034V6.47059C14.3599 6.72634 14.5841 6.90034 14.8151 7.01359L15.5284 7.31134C16.5604 7.81534 16.8184 9.01084 16.0669 10.0151L15.8531 10.2963C15.6619 10.5558 15.7009 10.8956 15.8914 11.1551L16.1051 11.4543C16.8829 12.4106 16.4441 13.7231 15.3461 14.1813L14.7326 14.4378C14.5009 14.5346 14.4101 14.7003 14.3674 14.9478L14.3246 15.7496C14.2984 15.9736 14.2279 16.1902 14.1172 16.3868C14.0065 16.5833 13.8578 16.7559 13.6797 16.8943C13.5016 17.0328 13.2978 17.1345 13.08 17.1934C12.8623 17.2524 12.635 17.2674 12.4114 17.2376L11.4761 16.9878C11.2511 16.9563 10.9721 17.0306 10.8229 17.2653L10.4854 17.7266C9.64838 18.6701 8.51813 18.5141 7.94888 17.9613L7.32638 17.2076C7.16288 17.0501 6.95813 16.9151 6.71138 17.0081L5.77088 17.2653C4.99313 17.3756 4.07813 16.7778 3.93188 16.0068L3.82313 14.8908C3.80133 14.7764 3.75262 14.6687 3.68103 14.5768C3.60944 14.4849 3.51701 14.4113 3.41138 14.3621L2.75138 14.1348C1.75838 13.6721 1.42613 12.5523 1.99613 11.6171L2.36813 11.1018C2.44139 10.9817 2.47864 10.8431 2.47545 10.7024C2.47226 10.5618 2.42876 10.425 2.35013 10.3083L2.07263 9.91609C1.28663 8.79709 1.82963 7.54609 2.99438 7.17109L3.25088 7.08859C3.53438 6.99709 3.80813 6.76234 3.83213 6.46534L3.88913 5.74534C3.98213 4.57534 5.04938 3.90409 6.17138 4.24534L6.53513 4.35559C6.88538 4.49209 7.15988 4.37584 7.35038 4.16809L7.74338 3.66709Z" fill="url(#paint9_radial_1060_1031)"/>
<g filter="url(#filter0_d_1060_1031)">
<path d="M9.10199 16.5692C10.6595 16.5692 12.1532 15.9505 13.2545 14.8492C14.3558 13.7479 14.9745 12.2542 14.9745 10.6967C14.9745 9.13923 14.3558 7.64554 13.2545 6.54423C12.1532 5.44293 10.6595 4.82422 9.10199 4.82422C7.54451 4.82422 6.05081 5.44293 4.94951 6.54423C3.8482 7.64554 3.22949 9.13923 3.22949 10.6967C3.22949 12.2542 3.8482 13.7479 4.94951 14.8492C6.05081 15.9505 7.54451 16.5692 9.10199 16.5692Z" fill="url(#paint10_radial_1060_1031)"/>
<path d="M9.10199 16.5692C10.6595 16.5692 12.1532 15.9505 13.2545 14.8492C14.3558 13.7479 14.9745 12.2542 14.9745 10.6967C14.9745 9.13923 14.3558 7.64554 13.2545 6.54423C12.1532 5.44293 10.6595 4.82422 9.10199 4.82422C7.54451 4.82422 6.05081 5.44293 4.94951 6.54423C3.8482 7.64554 3.22949 9.13923 3.22949 10.6967C3.22949 12.2542 3.8482 13.7479 4.94951 14.8492C6.05081 15.9505 7.54451 16.5692 9.10199 16.5692Z" fill="url(#paint11_radial_1060_1031)"/>
<path d="M9.10199 16.5692C10.6595 16.5692 12.1532 15.9505 13.2545 14.8492C14.3558 13.7479 14.9745 12.2542 14.9745 10.6967C14.9745 9.13923 14.3558 7.64554 13.2545 6.54423C12.1532 5.44293 10.6595 4.82422 9.10199 4.82422C7.54451 4.82422 6.05081 5.44293 4.94951 6.54423C3.8482 7.64554 3.22949 9.13923 3.22949 10.6967C3.22949 12.2542 3.8482 13.7479 4.94951 14.8492C6.05081 15.9505 7.54451 16.5692 9.10199 16.5692Z" fill="url(#paint12_radial_1060_1031)"/>
</g>
<path d="M9.19504 17.0092C9.59294 17.0092 9.98695 16.9308 10.3546 16.7786C10.7222 16.6263 11.0562 16.4031 11.3376 16.1218C11.6189 15.8404 11.8421 15.5064 11.9944 15.1387C12.1467 14.7711 12.225 14.3771 12.225 13.9792C12.225 13.5813 12.1467 13.1873 11.9944 12.8197C11.8421 12.4521 11.6189 12.118 11.3376 11.8367C11.0562 11.5553 10.7222 11.3321 10.3546 11.1799C9.98695 11.0276 9.59294 10.9492 9.19504 10.9492C8.39143 10.9492 7.62074 11.2684 7.05251 11.8367C6.48427 12.4049 6.16504 13.1756 6.16504 13.9792C6.16504 14.7828 6.48427 15.5535 7.05251 16.1218C7.62074 16.69 8.39143 17.0092 9.19504 17.0092Z" fill="url(#paint13_radial_1060_1031)"/>
<path d="M9.19504 17.0092C9.59294 17.0092 9.98695 16.9308 10.3546 16.7786C10.7222 16.6263 11.0562 16.4031 11.3376 16.1218C11.6189 15.8404 11.8421 15.5064 11.9944 15.1387C12.1467 14.7711 12.225 14.3771 12.225 13.9792C12.225 13.5813 12.1467 13.1873 11.9944 12.8197C11.8421 12.4521 11.6189 12.118 11.3376 11.8367C11.0562 11.5553 10.7222 11.3321 10.3546 11.1799C9.98695 11.0276 9.59294 10.9492 9.19504 10.9492C8.39143 10.9492 7.62074 11.2684 7.05251 11.8367C6.48427 12.4049 6.16504 13.1756 6.16504 13.9792C6.16504 14.7828 6.48427 15.5535 7.05251 16.1218C7.62074 16.69 8.39143 17.0092 9.19504 17.0092Z" fill="url(#paint14_radial_1060_1031)"/>
<g filter="url(#filter1_i_1060_1031)">
<path d="M20.43 10.9421C17.7675 8.34712 13.5075 8.39212 10.9125 11.0546C10.2432 11.738 9.72769 12.5565 9.4005 13.4554C9.38994 13.4837 9.37312 13.5093 9.35128 13.5303C9.32945 13.5512 9.30317 13.567 9.2744 13.5763C9.24564 13.5857 9.21512 13.5885 9.18514 13.5844C9.15516 13.5803 9.12648 13.5696 9.10125 13.5529C8.86794 13.3974 8.62062 13.2641 8.3625 13.1546C7.62462 12.816 6.81346 12.6684 6.00359 12.7252C5.19373 12.7821 4.41115 13.0416 3.72782 13.48C3.04449 13.9184 2.48234 14.5215 2.09305 15.234C1.70376 15.9464 1.49983 16.7453 1.5 17.5571C1.5 18.6971 1.8975 19.7471 2.5575 20.5796C3.01163 21.1774 3.59805 21.6618 4.27079 21.9949C4.94354 22.3281 5.6843 22.5008 6.435 22.4996H15.9525C18.0675 22.4996 19.935 21.4571 21.075 19.8596C23.115 17.1896 22.89 13.3496 20.43 10.9421" fill="#E0D3FF"/>
</g>
<g filter="url(#filter2_ii_1060_1031)">
<path d="M20.43 10.9421C17.7675 8.34712 13.5075 8.39212 10.9125 11.0546C10.2432 11.738 9.72769 12.5565 9.4005 13.4554C9.38994 13.4837 9.37312 13.5093 9.35128 13.5303C9.32945 13.5512 9.30317 13.567 9.2744 13.5763C9.24564 13.5857 9.21512 13.5885 9.18514 13.5844C9.15516 13.5803 9.12648 13.5696 9.10125 13.5529C8.86794 13.3974 8.62062 13.2641 8.3625 13.1546C7.62462 12.816 6.81346 12.6684 6.00359 12.7252C5.19373 12.7821 4.41115 13.0416 3.72782 13.48C3.04449 13.9184 2.48234 14.5215 2.09305 15.234C1.70376 15.9464 1.49983 16.7453 1.5 17.5571C1.5 18.6971 1.8975 19.7471 2.5575 20.5796C3.01163 21.1774 3.59805 21.6618 4.27079 21.9949C4.94354 22.3281 5.6843 22.5008 6.435 22.4996H15.9525C18.0675 22.4996 19.935 21.4571 21.075 19.8596C23.115 17.1896 22.89 13.3496 20.43 10.9421" fill="#E0D3FF"/>
<path d="M20.43 10.9421C17.7675 8.34712 13.5075 8.39212 10.9125 11.0546C10.2432 11.738 9.72769 12.5565 9.4005 13.4554C9.38994 13.4837 9.37312 13.5093 9.35128 13.5303C9.32945 13.5512 9.30317 13.567 9.2744 13.5763C9.24564 13.5857 9.21512 13.5885 9.18514 13.5844C9.15516 13.5803 9.12648 13.5696 9.10125 13.5529C8.86794 13.3974 8.62062 13.2641 8.3625 13.1546C7.62462 12.816 6.81346 12.6684 6.00359 12.7252C5.19373 12.7821 4.41115 13.0416 3.72782 13.48C3.04449 13.9184 2.48234 14.5215 2.09305 15.234C1.70376 15.9464 1.49983 16.7453 1.5 17.5571C1.5 18.6971 1.8975 19.7471 2.5575 20.5796C3.01163 21.1774 3.59805 21.6618 4.27079 21.9949C4.94354 22.3281 5.6843 22.5008 6.435 22.4996H15.9525C18.0675 22.4996 19.935 21.4571 21.075 19.8596C23.115 17.1896 22.89 13.3496 20.43 10.9421Z" fill="url(#paint15_radial_1060_1031)"/>
<path d="M20.43 10.9421C17.7675 8.34712 13.5075 8.39212 10.9125 11.0546C10.2432 11.738 9.72769 12.5565 9.4005 13.4554C9.38994 13.4837 9.37312 13.5093 9.35128 13.5303C9.32945 13.5512 9.30317 13.567 9.2744 13.5763C9.24564 13.5857 9.21512 13.5885 9.18514 13.5844C9.15516 13.5803 9.12648 13.5696 9.10125 13.5529C8.86794 13.3974 8.62062 13.2641 8.3625 13.1546C7.62462 12.816 6.81346 12.6684 6.00359 12.7252C5.19373 12.7821 4.41115 13.0416 3.72782 13.48C3.04449 13.9184 2.48234 14.5215 2.09305 15.234C1.70376 15.9464 1.49983 16.7453 1.5 17.5571C1.5 18.6971 1.8975 19.7471 2.5575 20.5796C3.01163 21.1774 3.59805 21.6618 4.27079 21.9949C4.94354 22.3281 5.6843 22.5008 6.435 22.4996H15.9525C18.0675 22.4996 19.935 21.4571 21.075 19.8596C23.115 17.1896 22.89 13.3496 20.43 10.9421Z" fill="url(#paint16_radial_1060_1031)"/>
<path d="M20.43 10.9421C17.7675 8.34712 13.5075 8.39212 10.9125 11.0546C10.2432 11.738 9.72769 12.5565 9.4005 13.4554C9.38994 13.4837 9.37312 13.5093 9.35128 13.5303C9.32945 13.5512 9.30317 13.567 9.2744 13.5763C9.24564 13.5857 9.21512 13.5885 9.18514 13.5844C9.15516 13.5803 9.12648 13.5696 9.10125 13.5529C8.86794 13.3974 8.62062 13.2641 8.3625 13.1546C7.62462 12.816 6.81346 12.6684 6.00359 12.7252C5.19373 12.7821 4.41115 13.0416 3.72782 13.48C3.04449 13.9184 2.48234 14.5215 2.09305 15.234C1.70376 15.9464 1.49983 16.7453 1.5 17.5571C1.5 18.6971 1.8975 19.7471 2.5575 20.5796C3.01163 21.1774 3.59805 21.6618 4.27079 21.9949C4.94354 22.3281 5.6843 22.5008 6.435 22.4996H15.9525C18.0675 22.4996 19.935 21.4571 21.075 19.8596C23.115 17.1896 22.89 13.3496 20.43 10.9421Z" fill="url(#paint17_radial_1060_1031)"/>
<path d="M20.43 10.9421C17.7675 8.34712 13.5075 8.39212 10.9125 11.0546C10.2432 11.738 9.72769 12.5565 9.4005 13.4554C9.38994 13.4837 9.37312 13.5093 9.35128 13.5303C9.32945 13.5512 9.30317 13.567 9.2744 13.5763C9.24564 13.5857 9.21512 13.5885 9.18514 13.5844C9.15516 13.5803 9.12648 13.5696 9.10125 13.5529C8.86794 13.3974 8.62062 13.2641 8.3625 13.1546C7.62462 12.816 6.81346 12.6684 6.00359 12.7252C5.19373 12.7821 4.41115 13.0416 3.72782 13.48C3.04449 13.9184 2.48234 14.5215 2.09305 15.234C1.70376 15.9464 1.49983 16.7453 1.5 17.5571C1.5 18.6971 1.8975 19.7471 2.5575 20.5796C3.01163 21.1774 3.59805 21.6618 4.27079 21.9949C4.94354 22.3281 5.6843 22.5008 6.435 22.4996H15.9525C18.0675 22.4996 19.935 21.4571 21.075 19.8596C23.115 17.1896 22.89 13.3496 20.43 10.9421Z" fill="url(#paint18_radial_1060_1031)"/>
</g>
<defs>
<filter id="filter0_d_1060_1031" x="2.77949" y="4.82422" width="12.1951" height="12.1951" filterUnits="userSpaceOnUse" color-interpolation-filters="sRGB">
<feFlood flood-opacity="0" result="BackgroundImageFix"/>
<feColorMatrix in="SourceAlpha" type="matrix" values="0 0 0 0 0 0 0 0 0 0 0 0 0 0 0 0 0 0 127 0" result="hardAlpha"/>
<feOffset dx="-0.225" dy="0.225"/>
<feGaussianBlur stdDeviation="0.1125"/>
<feComposite in2="hardAlpha" operator="out"/>
<feColorMatrix type="matrix" values="0 0 0 0 0.921569 0 0 0 0 0.47451 0 0 0 0 0.133333 0 0 0 1 0"/>
<feBlend mode="normal" in2="BackgroundImageFix" result="effect1_dropShadow_1060_1031"/>
<feBlend mode="normal" in="SourceGraphic" in2="effect1_dropShadow_1060_1031" result="shape"/>
</filter>
<filter id="filter1_i_1060_1031" x="1.5" y="9.02637" width="20.9561" height="13.4736" filterUnits="userSpaceOnUse" color-interpolation-filters="sRGB">
<feFlood flood-opacity="0" result="BackgroundImageFix"/>
<feBlend mode="normal" in="SourceGraphic" in2="BackgroundImageFix" result="shape"/>
<feColorMatrix in="SourceAlpha" type="matrix" values="0 0 0 0 0 0 0 0 0 0 0 0 0 0 0 0 0 0 127 0" result="hardAlpha"/>
<feOffset/>
<feGaussianBlur stdDeviation="1.5"/>
<feComposite in2="hardAlpha" operator="arithmetic" k2="-1" k3="1"/>
<feColorMatrix type="matrix" values="0 0 0 0 0.701961 0 0 0 0 0.698039 0 0 0 0 0.992157 0 0 0 1 0"/>
<feBlend mode="normal" in2="shape" result="effect1_innerShadow_1060_1031"/>
</filter>
<filter id="filter2_ii_1060_1031" x="1.5" y="9.02637" width="20.9561" height="13.4736" filterUnits="userSpaceOnUse" color-interpolation-filters="sRGB">
<feFlood flood-opacity="0" result="BackgroundImageFix"/>
<feBlend mode="normal" in="SourceGraphic" in2="BackgroundImageFix" result="shape"/>
<feColorMatrix in="SourceAlpha" type="matrix" values="0 0 0 0 0 0 0 0 0 0 0 0 0 0 0 0 0 0 127 0" result="hardAlpha"/>
<feOffset/>
<feGaussianBlur stdDeviation="2.25"/>
<feComposite in2="hardAlpha" operator="arithmetic" k2="-1" k3="1"/>
<feColorMatrix type="matrix" values="0 0 0 0 0.701961 0 0 0 0 0.698039 0 0 0 0 0.992157 0 0 0 1 0"/>
<feBlend mode="normal" in2="shape" result="effect1_innerShadow_1060_1031"/>
<feColorMatrix in="SourceAlpha" type="matrix" values="0 0 0 0 0 0 0 0 0 0 0 0 0 0 0 0 0 0 127 0" result="hardAlpha"/>
<feOffset/>
<feGaussianBlur stdDeviation="0.75"/>
<feComposite in2="hardAlpha" operator="arithmetic" k2="-1" k3="1"/>
<feColorMatrix type="matrix" values="0 0 0 0 0.701961 0 0 0 0 0.698039 0 0 0 0 0.992157 0 0 0 1 0"/>
<feBlend mode="normal" in2="effect1_innerShadow_1060_1031" result="effect2_innerShadow_1060_1031"/>
</filter>
<linearGradient id="paint0_linear_1060_1031" x1="13.6624" y1="5.59984" x2="5.27138" y2="16.3053" gradientUnits="userSpaceOnUse">
<stop stop-color="#FC8B23"/>
<stop offset="1" stop-color="#E67639"/>
</linearGradient>
<radialGradient id="paint1_radial_1060_1031" cx="0" cy="0" r="1" gradientUnits="userSpaceOnUse" gradientTransform="translate(10.5146 3.72559) rotate(138.155) scale(2.06552 1.82243)">
<stop offset="0.3" stop-color="#FFA13A"/>
<stop offset="1" stop-color="#FFA13A" stop-opacity="0"/>
</radialGradient>
<radialGradient id="paint2_radial_1060_1031" cx="0" cy="0" r="1" gradientUnits="userSpaceOnUse" gradientTransform="translate(5.14013 3.07309) rotate(67.8105) scale(3.28369 2.89723)">
<stop offset="0.3" stop-color="#FF942A"/>
<stop offset="1" stop-color="#FF942A" stop-opacity="0"/>
</radialGradient>
<radialGradient id="paint3_radial_1060_1031" cx="0" cy="0" r="1" gradientUnits="userSpaceOnUse" gradientTransform="translate(13.9588 6.13646) rotate(-164.745) scale(1.30925 1.81282)">
<stop offset="0.3" stop-color="#FFA13D"/>
<stop offset="1" stop-color="#FFA13D" stop-opacity="0"/>
</radialGradient>
<radialGradient id="paint4_radial_1060_1031" cx="0" cy="0" r="1" gradientUnits="userSpaceOnUse" gradientTransform="translate(16.5991 8.04254) rotate(154.195) scale(2.32136 1.71449)">
<stop offset="0.3" stop-color="#FFA13D"/>
<stop offset="1" stop-color="#FFA13D" stop-opacity="0"/>
</radialGradient>
<radialGradient id="paint5_radial_1060_1031" cx="0" cy="0" r="1" gradientUnits="userSpaceOnUse" gradientTransform="translate(17.1048 11.969) rotate(-173.379) scale(2.58943 1.45924)">
<stop offset="0.3" stop-color="#FFA13D"/>
<stop offset="1" stop-color="#FFA13D" stop-opacity="0"/>
</radialGradient>
<radialGradient id="paint6_radial_1060_1031" cx="0" cy="0" r="1" gradientUnits="userSpaceOnUse" gradientTransform="translate(14.7857 14.9786) rotate(-43.964) scale(2.34883 2.26282)">
<stop stop-color="#E0762A"/>
<stop offset="1" stop-color="#E0762A" stop-opacity="0"/>
</radialGradient>
<radialGradient id="paint7_radial_1060_1031" cx="0" cy="0" r="1" gradientUnits="userSpaceOnUse" gradientTransform="translate(3.90032 14.4272) rotate(-127.747) scale(1.80073 1.73479)">
<stop stop-color="#E0762A"/>
<stop offset="1" stop-color="#E0762A" stop-opacity="0"/>
</radialGradient>
<radialGradient id="paint8_radial_1060_1031" cx="0" cy="0" r="1" gradientUnits="userSpaceOnUse" gradientTransform="translate(1.44263 8.34109) rotate(25.278) scale(1.82862 2.21016)">
<stop stop-color="#F0851D"/>
<stop offset="1" stop-color="#F0851D" stop-opacity="0"/>
</radialGradient>
<radialGradient id="paint9_radial_1060_1031" cx="0" cy="0" r="1" gradientUnits="userSpaceOnUse" gradientTransform="translate(12.3581 17.5871) rotate(-142.487) scale(2.13198 2.01135)">
<stop offset="0.337" stop-color="#E3745B"/>
<stop offset="1" stop-color="#E3745B" stop-opacity="0"/>
</radialGradient>
<radialGradient id="paint10_radial_1060_1031" cx="0" cy="0" r="1" gradientUnits="userSpaceOnUse" gradientTransform="translate(12.4342 7.29472) rotate(117.739) scale(10.4789 12.9403)">
<stop offset="0.172" stop-color="#FFD13D"/>
<stop offset="1" stop-color="#D89A29"/>
</radialGradient>
<radialGradient id="paint11_radial_1060_1031" cx="0" cy="0" r="1" gradientUnits="userSpaceOnUse" gradientTransform="translate(7.01433 14.0783) rotate(-140.631) scale(3.65551 3.08632)">
<stop offset="0.341" stop-color="#DCA225"/>
<stop offset="1" stop-color="#DCA225" stop-opacity="0"/>
</radialGradient>
<radialGradient id="paint12_radial_1060_1031" cx="0" cy="0" r="1" gradientUnits="userSpaceOnUse" gradientTransform="translate(13.8982 9.69397) rotate(168.299) scale(12.5058 10.5585)">
<stop offset="0.62" stop-color="#DCA225" stop-opacity="0"/>
<stop offset="1" stop-color="#DCA225"/>
</radialGradient>
<radialGradient id="paint13_radial_1060_1031" cx="0" cy="0" r="1" gradientUnits="userSpaceOnUse" gradientTransform="translate(8.98795 13.4621) rotate(-110.468) scale(2.68169 2.60462)">
<stop offset="0.307" stop-color="#CECDFF"/>
<stop offset="1" stop-color="#B7B6FA"/>
</radialGradient>
<radialGradient id="paint14_radial_1060_1031" cx="0" cy="0" r="1" gradientUnits="userSpaceOnUse" gradientTransform="translate(10.1256 12.7883) rotate(-148.811) scale(1.08724 3.61546)">
<stop offset="0.401" stop-color="#B8B7FF"/>
<stop offset="1" stop-color="#B8B7FF" stop-opacity="0"/>
</radialGradient>
<radialGradient id="paint15_radial_1060_1031" cx="0" cy="0" r="1" gradientUnits="userSpaceOnUse" gradientTransform="translate(12.3125 17.4969) rotate(-106.955) scale(9.744 5.47464)">
<stop stop-color="#D6CCFF"/>
<stop offset="1" stop-color="#D6CCFF" stop-opacity="0"/>
</radialGradient>
<radialGradient id="paint16_radial_1060_1031" cx="0" cy="0" r="1" gradientUnits="userSpaceOnUse" gradientTransform="translate(21.2355 12.8936) rotate(147.006) scale(9.0798 10.1422)">
<stop offset="0.19" stop-color="#F2F0FF"/>
<stop offset="1" stop-color="#F2F0FF" stop-opacity="0"/>
</radialGradient>
<radialGradient id="paint17_radial_1060_1031" cx="0" cy="0" r="1" gradientUnits="userSpaceOnUse" gradientTransform="translate(6.79928 15.3372) rotate(147.319) scale(7.15725 8.72167)">
<stop stop-color="#F2F0FF"/>
<stop offset="0.696" stop-color="#F2F0FF" stop-opacity="0"/>
</radialGradient>
<radialGradient id="paint18_radial_1060_1031" cx="0" cy="0" r="1" gradientUnits="userSpaceOnUse" gradientTransform="translate(8.448 12.3251) rotate(71.906) scale(6.03867 2.25125)">
<stop stop-color="#F2F0FF"/>
<stop offset="1" stop-color="#F2F0FF" stop-opacity="0"/>
</radialGradient>
</defs>
</svg>
