<svg width="60" height="80" viewBox="0 0 100 100" fill="none" xmlns="http://www.w3.org/2000/svg">
<path d="M50 50C55.3249 50 60.5302 48.5338 64.9577 45.7867C69.3851 43.0397 72.8359 39.1352 74.8737 34.5671C76.9114 29.9989 77.4446 24.9723 76.4058 20.1227C75.3669 15.2732 72.8027 10.8187 69.0375 7.32234C65.2722 3.82603 60.475 1.44501 55.2524 0.480379C50.0299 -0.484251 44.6165 0.0108321 39.697 1.90302C34.7774 3.79521 30.5726 6.99952 27.6143 11.1108C24.6559 15.222 23.0769 20.0555 23.0769 25C23.0769 31.6304 25.9135 37.9893 30.9625 42.6777C36.0116 47.3661 42.8596 50 50 50ZM50 57.1429C33.3125 57.1429 0 66.7143 0 85.7143V100H100V85.7143C100 66.7143 66.6875 57.1429 50 57.1429Z" fill="#F2F3F7"/>
</svg>
